<svg data-name="Left Side" xmlns="http://www.w3.org/2000/svg" xmlns:xlink="http://www.w3.org/1999/xlink" viewBox="0 0 1186.2 999.55"><defs><linearGradient id="c" x1="-314.89" y1="823.12" x2="612.63" y2="823.12" xlink:href="#a"/><linearGradient id="Y" x1="-314.89" y1="483.5" x2="612.63" y2="483.5" xlink:href="#a"/><linearGradient id="d" x1="-314.89" y1="796.82" x2="612.63" y2="796.82" xlink:href="#a"/><linearGradient id="e" x1="-314.89" y1="769.66" x2="612.63" y2="769.66" xlink:href="#a"/><linearGradient id="f" x1="-314.89" y1="836.71" x2="612.63" y2="836.71" xlink:href="#a"/><linearGradient id="g" x1="-314.89" y1="809.53" x2="612.63" y2="809.53" xlink:href="#a"/><linearGradient id="h" x1="-314.89" y1="783.24" x2="612.63" y2="783.24" xlink:href="#a"/><linearGradient id="i" x1="-314.89" y1="646.44" x2="612.63" y2="646.44" xlink:href="#a"/><linearGradient id="j" x1="-314.89" y1="619.28" x2="612.63" y2="619.28" xlink:href="#a"/><linearGradient id="k" x1="-314.89" y1="864.91" x2="612.63" y2="864.91" xlink:href="#a"/><linearGradient id="l" x1="-314.89" y1="756.08" x2="612.63" y2="756.08" xlink:href="#a"/><linearGradient id="m" x1="-314.89" y1="673.6" x2="612.63" y2="673.6" xlink:href="#a"/><linearGradient id="n" x1="-314.89" y1="632.86" x2="612.63" y2="632.86" xlink:href="#a"/><linearGradient id="o" x1="-314.89" y1="687.18" x2="612.63" y2="687.18" xlink:href="#a"/><linearGradient id="p" x1="-314.89" y1="742.51" x2="612.63" y2="742.51" xlink:href="#a"/><linearGradient id="q" x1="-314.89" y1="728.93" x2="612.63" y2="728.93" xlink:href="#a"/><linearGradient id="r" x1="-314.89" y1="714.33" x2="612.63" y2="714.33" xlink:href="#a"/><linearGradient id="s" x1="-314.89" y1="700.76" x2="612.63" y2="700.76" xlink:href="#a"/><linearGradient id="t" x1="-314.89" y1="660.02" x2="612.63" y2="660.02" xlink:href="#a"/><linearGradient id="u" x1="-314.89" y1="924.31" x2="612.63" y2="924.31" xlink:href="#a"/><linearGradient id="v" x1="-314.89" y1="938.35" x2="612.63" y2="938.35" xlink:href="#a"/><linearGradient id="w" x1="-314.89" y1="917.54" x2="612.63" y2="917.54" xlink:href="#a"/><linearGradient id="x" x1="-314.89" y1="931.58" x2="612.63" y2="931.58" xlink:href="#a"/><linearGradient id="y" x1="-314.89" y1="910.77" x2="612.63" y2="910.77" xlink:href="#a"/><linearGradient id="z" x1="-314.89" y1="890.2" x2="612.63" y2="890.2" xlink:href="#a"/><linearGradient id="A" x1="-314.89" y1="903.73" x2="612.63" y2="903.73" xlink:href="#a"/><linearGradient id="B" x1="-314.89" y1="896.96" x2="612.63" y2="896.96" xlink:href="#a"/><linearGradient id="C" x1="-314.89" y1="958.66" x2="612.63" y2="958.66" xlink:href="#a"/><linearGradient id="D" x1="-314.89" y1="978.53" x2="612.63" y2="978.53" xlink:href="#a"/><linearGradient id="E" x1="-314.89" y1="985.3" x2="612.63" y2="985.3" xlink:href="#a"/><linearGradient id="F" x1="-314.89" y1="992.07" x2="612.63" y2="992.07" xlink:href="#a"/><linearGradient id="G" x1="-314.89" y1="998.38" x2="612.63" y2="998.38" xlink:href="#a"/><linearGradient id="H" x1="-314.89" y1="945.12" x2="612.63" y2="945.12" xlink:href="#a"/><linearGradient id="I" x1="-314.89" y1="878.5" x2="612.63" y2="878.5" xlink:href="#a"/><linearGradient id="J" x1="-314.89" y1="971.74" x2="612.63" y2="971.74" xlink:href="#a"/><linearGradient id="K" x1="-314.89" y1="965.43" x2="612.63" y2="965.43" xlink:href="#a"/><linearGradient id="L" x1="-314.89" y1="951.89" x2="612.63" y2="951.89" xlink:href="#a"/><linearGradient id="M" x1="-314.89" y1="130.82" x2="612.63" y2="130.82" xlink:href="#a"/><linearGradient id="N" x1="-314.89" y1="117.25" x2="612.63" y2="117.25" xlink:href="#a"/><linearGradient id="O" x1="-314.89" y1="144.38" x2="612.63" y2="144.38" xlink:href="#a"/><linearGradient id="P" x1="-314.89" y1="157.08" x2="612.63" y2="157.08" xlink:href="#a"/><linearGradient id="Q" x1="-314.89" y1="225.92" x2="612.63" y2="225.92" xlink:href="#a"/><linearGradient id="R" x1="-314.89" y1="605.7" x2="612.63" y2="605.7" xlink:href="#a"/><linearGradient id="S" x1="-314.89" y1="212.35" x2="612.63" y2="212.35" xlink:href="#a"/><linearGradient id="T" x1="-314.89" y1="170.65" x2="612.63" y2="170.65" xlink:href="#a"/><linearGradient id="U" x1="-314.89" y1="184.21" x2="612.63" y2="184.21" xlink:href="#a"/><linearGradient id="V" x1="-314.89" y1="239.49" x2="612.63" y2="239.49" xlink:href="#a"/><linearGradient id="W" x1="-314.89" y1="198.79" x2="612.63" y2="198.79" xlink:href="#a"/><linearGradient id="X" x1="-314.89" y1="253.05" x2="612.63" y2="253.05" xlink:href="#a"/><linearGradient id="a" x1="-314.89" y1="851.31" x2="612.63" y2="851.31" gradientUnits="userSpaceOnUse"><stop offset="0" stop-color="#fff"/><stop offset="1" stop-color="#fff" stop-opacity="0"/></linearGradient><linearGradient id="Z" x1="-314.89" y1="430.09" x2="612.63" y2="430.09" xlink:href="#a"/><linearGradient id="aa" x1="-314.89" y1="469.93" x2="612.63" y2="469.93" xlink:href="#a"/><linearGradient id="ab" x1="-314.89" y1="456.32" x2="612.63" y2="456.32" xlink:href="#a"/><linearGradient id="ac" x1="-314.89" y1="443.66" x2="612.63" y2="443.66" xlink:href="#a"/><linearGradient id="ad" x1="-314.89" y1="497.07" x2="612.63" y2="497.07" xlink:href="#a"/><linearGradient id="ae" x1="-314.89" y1="578.54" x2="612.63" y2="578.54" xlink:href="#a"/><linearGradient id="af" x1="-314.89" y1="592.12" x2="612.63" y2="592.12" xlink:href="#a"/><linearGradient id="ag" x1="-314.89" y1="564.96" x2="612.63" y2="564.96" xlink:href="#a"/><linearGradient id="ah" x1="-314.89" y1="524.22" x2="612.63" y2="524.22" xlink:href="#a"/><linearGradient id="ai" x1="-314.89" y1="551.38" x2="612.63" y2="551.38" xlink:href="#a"/><linearGradient id="aj" x1="-314.89" y1="537.8" x2="612.63" y2="537.8" xlink:href="#a"/><linearGradient id="ak" x1="-314.89" y1="510.64" x2="612.63" y2="510.64" xlink:href="#a"/><linearGradient id="al" x1="-314.89" y1="294.28" x2="612.63" y2="294.28" xlink:href="#a"/><linearGradient id="am" x1="-314.89" y1="307.85" x2="612.63" y2="307.85" xlink:href="#a"/><linearGradient id="an" x1="-314.89" y1="335.99" x2="612.63" y2="335.99" xlink:href="#a"/><linearGradient id="ao" x1="-314.89" y1="322.43" x2="612.63" y2="322.43" xlink:href="#a"/><linearGradient id="ap" x1="-314.89" y1="416.52" x2="612.63" y2="416.52" xlink:href="#a"/><linearGradient id="aq" x1="-314.89" y1="280.72" x2="612.63" y2="280.72" xlink:href="#a"/><linearGradient id="ar" x1="-314.89" y1="266.62" x2="612.63" y2="266.62" xlink:href="#a"/><linearGradient id="as" x1="-314.89" y1="402.9" x2="612.63" y2="402.9" xlink:href="#a"/><linearGradient id="at" x1="-314.89" y1="390.26" x2="612.63" y2="390.26" xlink:href="#a"/><linearGradient id="au" x1="-314.89" y1="376.69" x2="612.63" y2="376.69" xlink:href="#a"/><linearGradient id="av" x1="-314.89" y1="363.13" x2="612.63" y2="363.13" xlink:href="#a"/><linearGradient id="aw" x1="-314.89" y1="349.56" x2="612.63" y2="349.56" xlink:href="#a"/><linearGradient id="b" x1="669.65" y1="665.06" x2="669.65" y2="1200.89" gradientUnits="userSpaceOnUse"><stop offset="0" stop-color="#f76b1c"/><stop offset="1" stop-color="#fad961"/></linearGradient><linearGradient id="ax" x1="487.07" y1="665.06" x2="487.07" y2="1200.89" xlink:href="#b"/><linearGradient id="ay" x1="457.27" y1="665.06" x2="457.27" y2="1200.89" xlink:href="#b"/><linearGradient id="az" x1="606.29" y1="665.06" x2="606.29" y2="1200.89" xlink:href="#b"/><linearGradient id="aA" x1="576.48" y1="665.06" x2="576.48" y2="1200.89" xlink:href="#b"/><linearGradient id="aB" x1="636.09" y1="665.06" x2="636.09" y2="1200.89" xlink:href="#b"/><linearGradient id="aC" x1="659.72" y1="665.06" x2="659.72" y2="1200.89" xlink:href="#b"/><linearGradient id="aD" x1="516.88" y1="665.06" x2="516.88" y2="1200.89" xlink:href="#b"/><linearGradient id="aE" x1="546.68" y1="665.06" x2="546.68" y2="1200.89" xlink:href="#b"/><linearGradient id="aF" x1="129.43" y1="665.06" x2="129.43" y2="1200.89" xlink:href="#b"/><linearGradient id="aG" x1="99.63" y1="665.06" x2="99.63" y2="1200.89" xlink:href="#b"/><linearGradient id="aH" x1="159.24" y1="665.06" x2="159.24" y2="1200.89" xlink:href="#b"/><linearGradient id="aI" x1="427.47" y1="665.06" x2="427.47" y2="1200.89" xlink:href="#b"/><linearGradient id="aJ" x1="69.83" y1="665.06" x2="69.83" y2="1200.89" xlink:href="#b"/><linearGradient id="aK" x1="189.04" y1="665.06" x2="189.04" y2="1200.89" xlink:href="#b"/><linearGradient id="aL" x1="40.03" y1="665.06" x2="40.03" y2="1200.89" xlink:href="#b"/><linearGradient id="aM" x1="10.22" y1="665.06" x2="10.22" y2="1200.89" xlink:href="#b"/><linearGradient id="aN" x1="338.06" y1="665.06" x2="338.06" y2="1200.89" xlink:href="#b"/><linearGradient id="aO" x1="367.86" y1="665.06" x2="367.86" y2="1200.89" xlink:href="#b"/><linearGradient id="aP" x1="397.66" y1="665.06" x2="397.66" y2="1200.89" xlink:href="#b"/><linearGradient id="aQ" x1="308.25" y1="665.06" x2="308.25" y2="1200.89" xlink:href="#b"/><linearGradient id="aR" x1="248.65" y1="665.06" x2="248.65" y2="1200.89" xlink:href="#b"/><linearGradient id="aS" x1="278.45" y1="665.06" x2="278.45" y2="1200.89" xlink:href="#b"/><linearGradient id="aT" x1="218.84" y1="665.06" x2="218.84" y2="1200.89" xlink:href="#b"/></defs><g data-name="Layer 1"><g opacity=".12"><path d="M306.15 915.29c-35.19-13.47-70.65-26.59-106.59-39-9-3-18-6.19-27.05-9.13l-13.59-4.47c-4.54-1.48-9.11-2.89-13.67-4.34q-27.31-8.7-55.23-16.3c-18.6-5.06-37.44-9.62-56.55-13.38l-14.41-2.59-5.06-.75v9.27l7.11 1 14.63 2.61c2.45.4 4.84 1 7.25 1.48l7.21 1.55c2.4.54 4.83 1 7.19 1.6l7.12 1.74 7.12 1.74 3.56.87 3.51.94 14.07 3.78q27.95 7.89 55.29 16.74c4.55 1.48 9.12 2.93 13.65 4.44l13.57 4.57c9.07 3 18 6.21 27 9.33 35.89 12.59 71.27 25.9 106.36 39.57s69.87 27.75 104.43 42.09q36.58 15.23 72.84 30.87h27.43q-50.91-21.74-102.42-42.75-52.02-21.23-104.77-41.48z" fill="none"/><path d="M306.89 928.94c-35.19-13.48-70.66-26.59-106.6-39-9-3-18-6.19-27-9.13l-13.59-4.47c-4.54-1.47-9.11-2.89-13.66-4.34-18.21-5.8-36.66-11.19-55.23-16.3s-37.5-9.59-56.61-13.36l-14.4-2.61-5.8-.86v9.27l7.84 1.14 14.63 2.62c2.46.4 4.84 1 7.25 1.47l7.21 1.56c2.4.53 4.83 1 7.2 1.59l7.12 1.74 7.11 1.74 3.56.87 3.52.95 14.07 3.78q27.93 7.89 55.28 16.73c4.55 1.49 9.12 2.94 13.65 4.44l13.56 4.58c9.07 3 18 6.21 27 9.32 35.9 12.6 71.27 25.91 106.36 39.58s69.87 27.75 104.43 42.08q20.52 8.55 40.93 17.23h27.14q-35-14.73-70.22-29.1-52.01-21.24-104.75-41.52zm103.27 13.69q-52-21.23-104.77-41.52c-35.19-13.48-70.65-26.59-106.59-39-9-3.05-18-6.19-27.06-9.13l-13.58-4.44c-4.54-1.47-9.11-2.89-13.67-4.33q-27.32-8.7-55.23-16.31c-18.6-5.06-37.44-9.61-56.55-13.37L18.3 811.9l-4.3-.64v9.8l6.37.93L35 824.61c2.45.4 4.84 1 7.24 1.47l7.22 1.56c2.39.53 4.83 1 7.19 1.59l7.12 1.74 7.12 1.74 3.56.87 3.55.96 14 3.77q27.94 7.89 55.28 16.74c4.56 1.48 9.13 2.93 13.66 4.43l13.57 4.58c9.07 3 18 6.21 27 9.32 35.89 12.6 71.27 25.91 106.36 39.58s69.86 27.75 104.42 42.08 68.83 29 102.94 43.91l1.38.61h28.9q-15.94-6.9-31.92-13.74-51.41-21.96-103.43-43.19zm-1.47-27.29q-52-21.22-104.76-41.52c-35.19-13.48-70.66-26.59-106.6-39-9-3-18-6.19-27.05-9.13l-13.59-4.47c-4.53-1.47-9.11-2.89-13.66-4.33q-27.32-8.7-55.23-16.31c-18.6-5.06-37.45-9.61-56.56-13.37l-14.4-2.62-2.84-.4v9.26l4.88.71 14.63 2.62c2.46.4 4.84 1 7.25 1.47l7.24 1.56c2.4.53 4.83 1 7.2 1.59l7.12 1.74 7.11 1.74 3.56.88 3.52.94 14.07 3.78q27.95 7.89 55.28 16.74c4.55 1.48 9.12 2.93 13.66 4.44l13.56 4.57c9.07 3 18 6.21 27 9.33 35.89 12.59 71.26 25.9 106.35 39.57s69.87 27.75 104.43 42.09 68.83 29 102.93 43.9Q546 985.21 578 999.54h28.16q-46.68-20.88-94-41-51.43-22-103.47-43.2z" fill="none"/><path d="M14 8.7c.85.19 1.71.38 2.55.59l7.12 1.74 7.12 1.74 3.56.88 3.51.94 14.07 3.78q27.95 7.89 55.28 16.74c4.56 1.48 9.13 2.93 13.66 4.44l13.57 4.57c9.07 3 18 6.21 27 9.33 35.89 12.59 71.27 25.9 106.36 39.57s69.87 27.75 104.42 42.09 68.83 29 102.94 43.91 68 30 101.64 45.41l.24.11-.3.34-.24-.11q-50.73-22.8-102.22-44.71t-103.47-43.18q-52-21.24-104.76-41.52c-35.2-13.48-70.66-26.59-106.6-39-9-3.05-18-6.19-27-9.13l-13.59-4.47c-4.54-1.47-9.11-2.89-13.67-4.34-18.2-5.8-36.65-11.19-55.22-16.3Q32.1 17.3 14 13.15v9c1.1.23 2.2.48 3.29.75l7.11 1.74 7.12 1.74 3.56.87 3.52.95 14.06 3.78Q80.61 39.91 108 48.75c4.55 1.49 9.12 2.94 13.65 4.44l13.57 4.58c9.07 3 18 6.21 27 9.32 35.89 12.6 71.27 25.91 106.36 39.58S338.4 134.41 373 148.75s68.82 29 102.93 43.91 68 30 101.64 45.41l.24.11-.3.35-.24-.11Q526.51 215.61 475 193.71t-103.46-43.17q-52-21.22-104.76-41.52c-35.19-13.48-70.66-26.59-106.6-39-9-3-18-6.19-27.05-9.13l-13.59-4.48c-4.54-1.46-9.11-2.87-13.66-4.32-18.21-5.8-36.66-11.2-55.23-16.3Q32.49 30.84 14 26.63v9c1.35.29 2.69.58 4 .91l7.12 1.74 7.11 1.74 3.56.88 3.52.94 14.09 3.82q27.93 7.88 55.28 16.74c4.55 1.48 9.12 2.93 13.66 4.44l13.56 4.57c9.07 3 18 6.21 27 9.33 35.9 12.59 71.27 25.9 106.36 39.57s69.87 27.75 104.43 42.09 68.83 29 102.93 43.91 68 30 101.65 45.41l.24.11-.31.34-.24-.11q-50.72-22.8-102.22-44.71t-103.47-43.18q-52-21.24-104.76-41.52c-35.19-13.48-70.65-26.59-106.59-39-9-3-18-6.19-27.06-9.13l-13.58-4.47c-4.54-1.47-9.12-2.89-13.67-4.34C88.4 59.93 70 54.54 51.38 49.43Q32.86 44.39 14 40.11v8.19c1.57.33 3.15.67 4.7 1.05l7.12 1.74 7.12 1.74 3.56.88 3.51.94 14.07 3.78Q82 66.32 109.36 75.17c4.56 1.48 9.13 2.93 13.66 4.44l13.57 4.57c9.07 3 18 6.21 27 9.33 35.89 12.59 71.27 25.9 106.36 39.57s69.87 27.75 104.42 42.09 68.83 29 102.94 43.91 68 30 101.64 45.41l.24.11-.3.34-.24-.11q-50.73-22.8-102.22-44.71T373 176.94q-52-21.24-104.76-41.52c-35.19-13.48-70.66-26.59-106.6-39-9-3.05-18-6.19-27-9.13L121 82.84c-4.54-1.47-9.11-2.89-13.67-4.34-18.2-5.8-36.65-11.19-55.22-16.3Q33.2 57.07 14 52.73v9.06c1.82.39 3.65.76 5.44 1.21l7.11 1.74 7.12 1.74 3.56.87 3.52 1 14.06 3.78q27.95 7.84 55.29 16.68c4.55 1.49 9.12 2.94 13.65 4.44l13.57 4.57c9.07 3 18 6.22 27 9.33 35.89 12.6 71.27 25.91 106.36 39.58s69.87 27.74 104.43 42.08 68.82 29 102.93 43.91 68 30 101.65 45.41l.23.11-.3.34-.24-.1q-50.71-22.81-102.22-44.71t-103.47-43.23q-52-21.22-104.76-41.52c-35.19-13.48-70.66-26.59-106.6-39-9-3-18-6.19-27.05-9.13l-13.59-4.48c-4.54-1.47-9.11-2.88-13.66-4.33-18.21-5.8-36.66-11.2-55.23-16.3Q33.57 70.61 14 66.21v9.06c2.06.45 4.14.87 6.17 1.37l7.12 1.74 7.11 1.74 3.56.88 3.52.94 14.07 3.78q27.93 7.89 55.28 16.74c4.55 1.48 9.12 2.93 13.66 4.44l13.56 4.57c9.07 3 18 6.21 27 9.33 35.9 12.59 71.27 25.9 106.36 39.57s69.87 27.75 104.43 42.09 68.83 29 102.93 43.91 68 30 101.65 45.41l.24.11-.31.34-.24-.11q-50.72-22.8-102.22-44.71t-103.47-43.18q-52-21.24-104.76-41.52c-35.19-13.48-70.65-26.59-106.59-39-9-3-18-6.19-27.06-9.13l-13.58-4.47c-4.54-1.47-9.12-2.89-13.67-4.34-18.21-5.78-36.65-11.17-55.23-16.23Q34 84.17 14 79.69v10.07c2.32.52 4.67 1 7 1.55l7.12 1.74 7.12 1.74 3.56.87 3.51.94 14.07 3.78q27.95 7.89 55.29 16.74c4.55 1.48 9.12 2.93 13.65 4.44l13.57 4.57c9.07 3 18 6.21 27 9.33 35.89 12.59 71.27 25.9 106.36 39.57s69.87 27.75 104.43 42.09 68.82 29 102.93 43.91 68 30 101.64 45.41l.24.11-.3.34-.24-.11q-50.71-22.8-102.22-44.7t-103.52-43.19q-52-21.24-104.76-41.52c-35.19-13.48-70.66-26.59-106.6-39-9-3-18-6.19-27-9.13l-13.59-4.47c-4.54-1.47-9.11-2.89-13.66-4.33-18.21-5.81-36.66-11.2-55.23-16.31q-20-5.43-40.32-10v9.07l.49.11c2.4.53 4.83 1 7.2 1.59l7.12 1.74 7.11 1.74 3.56.87 3.52.95 14.07 3.78q27.88 7.94 55.23 16.79c4.55 1.48 9.12 2.93 13.65 4.43l13.57 4.58c9.07 3 18 6.21 27 9.32 35.9 12.6 71.27 25.91 106.36 39.58s69.87 27.75 104.43 42.09 68.83 29 102.93 43.9 68 30 101.65 45.41l.24.11-.31.35-.24-.11q-50.71-22.81-102.22-44.71t-103.47-43.18q-52-21.23-104.76-41.52c-35.19-13.47-70.65-26.59-106.6-39-9-3.05-18-6.19-27.05-9.13L124 138.44c-4.54-1.48-9.12-2.89-13.67-4.34q-27.32-8.7-55.23-16.3c-13.55-3.69-27.23-7.1-41-10.14v9.08l1.23.26c2.39.54 4.82 1 7.19 1.6l7.12 1.74 7.12 1.74 3.55.87 3.52.94 14.07 3.78q27.85 7.87 55.18 16.74c4.55 1.48 9.12 2.93 13.66 4.44l13.56 4.57c9.07 3 18 6.21 27 9.33 35.89 12.59 71.26 25.9 106.36 39.57s69.86 27.75 104.42 42.09 68.83 29 102.93 43.91 68 30 101.65 45.41l.24.11-.31.34-.24-.11q-50.72-22.8-102.22-44.7t-103.46-43.19q-52-21.24-104.76-41.52c-35.19-13.48-70.65-26.59-106.59-39-9-3-18-6.19-27.06-9.13l-13.58-4.47c-4.54-1.47-9.11-2.89-13.67-4.33-18.21-5.79-36.65-11.19-55.23-16.29-13.78-3.75-27.72-7.22-41.78-10.3v9.08l2 .43c2.39.53 4.83 1 7.19 1.59l7.12 1.74 7.12 1.74 3.55.87 3.52.95 14.07 3.78q27.94 7.89 55.28 16.74c4.55 1.48 9.13 2.93 13.66 4.43l13.49 4.58c9.07 3 18 6.21 27 9.32 35.89 12.6 71.27 25.91 106.36 39.58s69.86 27.75 104.42 42.08 68.83 29 102.94 43.91 68 30 101.64 45.41l.24.11-.3.35-.24-.11q-50.73-22.81-102.22-44.71t-103.43-43.19q-52-21.22-104.77-41.52c-35.19-13.47-70.65-26.59-106.59-39-9-3-18-6.19-27.06-9.13l-13.58-4.47c-4.54-1.48-9.11-2.89-13.67-4.34q-27.31-8.7-55.23-16.3c-14-3.82-28.2-7.35-42.51-10.47v9.09l2.69.58c2.4.54 4.83 1 7.19 1.6l7.12 1.77 7.12 1.74 3.56.87 3.51.94 14.07 3.78q27.95 7.89 55.29 16.74c4.55 1.48 9.12 2.93 13.65 4.44l13.57 4.57c9.07 3 18 6.21 27 9.33 35.89 12.59 71.27 25.9 106.36 39.57S345 257.36 379.55 271.7s68.83 29 102.94 43.91 68 30 101.64 45.41l.24.11-.3.34-.24-.11q-50.73-22.82-102.22-44.7t-103.47-43.19q-52-21.24-104.76-41.52c-35.19-13.48-70.66-26.59-106.6-39-9-3.05-18-6.19-27-9.13l-13.59-4.47c-4.54-1.47-9.11-2.89-13.66-4.34-18.21-5.8-36.66-11.19-55.23-16.3-14.3-3.86-28.74-7.44-43.3-10.6v9.09l3.42.74c2.4.53 4.83 1 7.2 1.59l7.11 1.74 7.12 1.74 3.56.87 3.52.95L60 168.61q27.95 7.89 55.29 16.74c4.55 1.48 9.12 2.93 13.65 4.43l13.57 4.58c9.07 3 18 6.21 27 9.32 35.9 12.6 71.27 25.91 106.36 39.58s69.87 27.75 104.43 42.08 68.83 29 102.93 43.91 68 30 101.65 45.41l.24.11-.31.35-.24-.11q-50.71-22.82-102.22-44.71t-103.48-43.19q-52-21.22-104.76-41.52c-35.19-13.47-70.65-26.59-106.6-39-9-3.05-18-6.19-27-9.13l-13.59-4.47c-4.53-1.48-9.11-2.89-13.66-4.34Q85.9 179.98 58 172.38c-14.51-4-29.17-7.58-44-10.78v9.62l4.18.9c2.4.54 4.83 1 7.2 1.59l7.12 1.74 7.11 1.74 3.56.88 3.52.94 14.07 3.78q27.93 7.89 55.24 16.75c4.55 1.48 9.12 2.93 13.66 4.44l13.6 4.56c9.07 3 18 6.21 27 9.33 35.9 12.59 71.27 25.9 106.36 39.57s69.87 27.75 104.43 42.1 68.83 29 102.95 43.9 68 30 101.65 45.41l.24.11-.31.34-.24-.11q-50.72-22.8-102.22-44.71T379.63 301.3q-52-21.24-104.76-41.53c-35.19-13.47-70.65-26.58-106.59-39-9-3-18-6.19-27.06-9.13l-13.58-4.47c-4.54-1.47-9.12-2.89-13.67-4.34-18.21-5.8-36.65-11.19-55.23-16.3C44 182.54 29.07 178.86 14 175.62v9.08l4.92 1.07c2.39.53 4.82 1 7.19 1.59l7.12 1.74 7.12 1.74 3.55.87 3.52 1 14.07 3.77q27.95 7.89 55.28 16.74c4.55 1.48 9.12 2.94 13.66 4.44l13.57 4.52c9.08 3 18 6.22 27 9.33 35.89 12.6 71.27 25.91 106.36 39.58s69.86 27.74 104.42 42.08 68.83 29 102.94 43.91 68 30 101.64 45.41l.24.11-.31.34-.24-.1q-50.71-22.82-102.21-44.71t-103.48-43.19q-52-21.22-104.76-41.52c-35.19-13.48-70.6-26.59-106.6-38.97-9-3-18-6.19-27.06-9.13l-13.58-4.48c-4.54-1.47-9.11-2.89-13.67-4.33q-27.32-8.7-55.23-16.31c-15-4.07-30.15-7.82-45.47-11.09v9.08l5.65 1.22c2.39.54 4.83 1 7.19 1.59l7.17 1.74 7.12 1.74 3.56.88 3.51.94 14.07 3.78q27.94 7.89 55.28 16.74c4.56 1.48 9.13 2.93 13.66 4.44l13.57 4.57c9.07 3 18 6.21 27 9.33 35.89 12.59 71.27 25.9 106.36 39.57s69.87 27.75 104.38 42.09 68.83 29 102.94 43.9 68 30 101.64 45.42l.24.11-.3.34-.24-.11q-50.73-22.8-102.22-44.71T381.1 328.59q-52-21.24-104.77-41.53c-35.19-13.47-70.65-26.58-106.59-39-9-3.05-18-6.19-27.05-9.13l-13.59-4.39c-4.54-1.47-9.11-2.89-13.67-4.34-18.2-5.8-36.65-11.19-55.22-16.3C45 209.71 29.57 205.91 14 202.6v10.08l6.44 1.39c2.39.54 4.82 1 7.19 1.6l7.12 1.73 7.12 1.75 3.55.87 3.52.94L63 224.74q27.95 7.89 55.28 16.74c4.55 1.48 9.12 2.93 13.66 4.44l13.57 4.62c9.07 3 18 6.21 27 9.33 35.89 12.59 71.26 25.9 106.36 39.57s69.86 27.75 104.42 42.09 68.83 29 102.93 43.91 68 30 101.65 45.41l.24.11-.31.34-.24-.11q-50.72-22.8-102.22-44.71t-103.46-43.23q-52-21.24-104.76-41.52c-35.19-13.48-70.65-26.59-106.59-39-9-3-18-6.19-27.06-9.13l-13.58-4.47c-4.54-1.47-9.11-2.89-13.67-4.34C98 239.01 79.57 233.62 61 228.54c-15.49-4.21-31.15-8.07-47-11.42v9.08l7.17 1.55c2.39.53 4.83 1 7.19 1.59l7.12 1.74 7.12 1.74 3.55.87 3.52.95 14.07 3.78q27.95 7.89 55.28 16.73c4.55 1.49 9.13 2.94 13.66 4.44l13.57 4.58c9.07 3 18 6.21 27 9.32 35.89 12.6 71.27 25.91 106.36 39.58s69.86 27.71 104.39 42.05 68.83 29 102.94 43.91 68 30 101.64 45.41l.24.11-.3.35-.24-.11q-50.73-22.81-102.22-44.71t-103.44-43.19q-52-21.23-104.77-41.52c-35.19-13.48-70.65-26.59-106.59-39-9-3.05-18-6.19-27.06-9.13l-13.58-4.48c-4.54-1.47-9.11-2.88-13.67-4.33q-27.32-8.7-55.23-16.3C46 237.88 30.09 233.97 14 230.54v9.08l.69.15 7.21 1.55c2.4.54 4.83 1 7.19 1.59l7.12 1.74 7.12 1.74 3.56.88 3.51.94 14.07 3.78q27.94 7.89 55.29 16.74c4.55 1.48 9.12 2.93 13.65 4.44l13.59 4.61c9.07 3 18 6.21 27 9.33 35.89 12.59 71.27 25.9 106.36 39.57s69.87 27.75 104.42 42.09 68.83 29 102.94 43.91 68 30 101.64 45.41l.24.11-.3.34-.24-.11q-50.73-22.8-102.22-44.71t-103.49-43.18q-52-21.24-104.76-41.52c-35.19-13.48-70.66-26.59-106.59-38.98-9-3.05-18-6.19-27.05-9.13l-13.59-4.47c-4.54-1.47-9.11-2.89-13.66-4.34-18.21-5.8-36.66-11.19-55.23-16.3A891.287 891.287 0 0014 244.07v9.08l1.42.3 7.21 1.56c2.4.53 4.83 1 7.2 1.59l7.11 1.74 7.12 1.74 3.56.87 3.52.95 14.06 3.78q27.94 7.89 55.29 16.73c4.55 1.49 9.12 2.94 13.65 4.44l13.57 4.58c9.07 3 18 6.21 27 9.32 35.9 12.6 71.27 25.91 106.36 39.58s69.87 27.74 104.43 42.08 68.83 29 102.93 43.91 68 30 101.65 45.41l.24.11-.31.35-.24-.11q-50.71-22.82-102.22-44.71t-103.47-43.19q-52-21.22-104.76-41.52c-35.19-13.48-70.65-26.59-106.6-39-9-3-18-6.19-27.05-9.13l-13.59-4.48c-4.53-1.47-9.11-2.88-13.66-4.33q-27.32-8.7-55.23-16.3C47 265.04 30.59 261.01 14 257.54v9.07l2.15.47 7.22 1.55c2.39.54 4.82 1 7.19 1.59l7.12 1.74 7.11 1.74 3.56.88 3.52.94 14.07 3.78q27.94 7.89 55.28 16.74c4.55 1.48 9.12 2.93 13.66 4.44l13.56 4.57c9.07 3 18 6.21 27 9.33 35.89 12.59 71.26 25.9 106.35 39.57s69.87 27.75 104.43 42.09 68.83 29 102.93 43.91 68 30 101.65 45.41l.24.11-.31.34-.24-.11q-50.71-22.8-102.22-44.71t-103.46-43.16q-52-21.24-104.76-41.52c-35.19-13.48-70.65-26.59-106.59-39-9-3.05-18-6.19-27.06-9.13l-13.58-4.47c-4.54-1.47-9.12-2.89-13.67-4.34-18.21-5.8-36.65-11.19-55.23-16.3-16.44-4.45-33.08-8.53-49.92-12.01v9.06l2.88.62 7.22 1.56c2.39.53 4.83 1 7.19 1.59l7.12 1.74 7.12 1.74 3.55.87 3.52.95 14.07 3.78q27.94 7.89 55.28 16.73c4.55 1.49 9.12 2.94 13.66 4.44l13.56 4.57c9.08 3 18 6.22 27 9.33 35.89 12.6 71.27 25.91 106.36 39.58S352.4 395.36 387 409.7s68.83 29 102.94 43.91 68 30 101.64 45.41l.24.11-.3.34-.25-.1Q540.51 476.54 489 454.66t-103.45-43.19q-52-21.23-104.77-41.52c-35.19-13.48-70.65-26.59-106.59-39-9-3.05-18-6.19-27.06-9.13l-13.58-4.48c-4.54-1.47-9.11-2.88-13.67-4.33q-27.31-8.7-55.23-16.3C48 292.2 31.09 288.07 14 284.54v8.14l3.57.77 7.21 1.55c2.4.54 4.83 1 7.19 1.6l7.12 1.74 7.12 1.74 3.56.87 3.51.95 14.07 3.77q27.95 7.87 55.29 16.75c4.55 1.48 9.12 2.94 13.65 4.44l13.57 4.57c9.07 3 18 6.22 27 9.33 35.89 12.6 71.27 25.91 106.36 39.58s69.87 27.74 104.42 42.08 68.83 29 102.94 43.91 68 30 101.64 45.41l.24.11-.3.34-.24-.1q-50.73-22.81-102.22-44.71t-103.47-43.19q-52-21.22-104.76-41.52c-35.19-13.48-70.66-26.59-106.6-39-9-3.06-18-6.2-27.05-9.14l-13.59-4.47c-4.54-1.47-9.11-2.89-13.66-4.33-18.21-5.8-36.66-11.2-55.23-16.31-16.91-4.59-34-8.77-51.34-12.32v9.1l4.3.92 7.21 1.56c2.4.53 4.83 1 7.2 1.59l7.12 1.74 7.11 1.74 3.56.87 3.52.95 14.07 3.78q27.94 7.89 55.28 16.73c4.55 1.49 9.12 2.94 13.66 4.44l13.56 4.58c9.07 3 18 6.21 27 9.32 35.89 12.6 71.26 25.91 106.35 39.58s69.87 27.75 104.43 42.08 68.83 29 102.93 43.91 68 30 101.65 45.41l.24.11-.31.35-.24-.11q-50.71-22.82-102.22-44.71T387 437.88q-52-21.22-104.76-41.52c-35.19-13.47-70.65-26.59-106.59-39-9-3.05-18-6.19-27.06-9.13L135 343.79c-4.54-1.48-9.12-2.89-13.67-4.34q-27.31-8.7-55.23-16.3c-17.14-4.67-34.5-8.89-52.07-12.47v9.05c1.68.33 3.35.71 5 1.07l7.22 1.55c2.39.54 4.83 1 7.19 1.59l7.12 1.74 7.12 1.74 3.55.88 3.52.94 14.07 3.78q27.95 7.89 55.28 16.74c4.55 1.48 9.12 2.93 13.66 4.44l13.56 4.57c9.08 3 18 6.21 27 9.33 35.89 12.59 71.27 25.9 106.36 39.57s69.86 27.75 104.42 42.09 68.83 29 102.94 43.91 68 30 101.64 45.41l.24.11-.3.34-.25-.11q-50.71-22.8-102.21-44.71T387.7 451.54q-52-21.24-104.77-41.52c-35.19-13.48-70.65-26.59-106.59-39-9-3.05-18-6.19-27.06-9.13l-13.58-4.47c-4.54-1.47-9.11-2.89-13.67-4.34-18.21-5.8-36.65-11.19-55.23-16.3-17.38-4.73-35-9-52.8-12.62v9.06c1.94.37 3.84.81 5.77 1.21L27 336c2.4.53 4.83 1 7.19 1.59l7.12 1.74 7.12 1.74 3.56.87 3.51 1 14.07 3.78q27.93 7.82 55.27 16.68c4.55 1.49 9.12 2.94 13.65 4.44l13.57 4.58c9.07 3 18 6.21 27 9.32 35.89 12.6 71.27 25.91 106.36 39.58s69.87 27.74 104.42 42.08 68.83 29 102.94 43.91 68 30 101.64 45.41l.24.11-.3.35-.24-.11q-50.73-22.81-102.22-44.71t-103.47-43.19q-52-21.22-104.76-41.52c-35.19-13.48-70.66-26.59-106.6-39-9-3.05-18-6.19-27-9.13l-13.59-4.48c-4.54-1.47-9.11-2.88-13.66-4.33-18.21-5.8-36.66-11.2-55.23-16.3-17.67-4.77-35.52-9.1-53.59-12.74v8.16c2.17.39 4.3.88 6.45 1.33l7.21 1.56c2.4.53 4.83 1 7.2 1.59l7.14 1.74 7.12 1.74 3.56.87 3.52.95 14.06 3.77q27.95 7.89 55.29 16.74c4.55 1.48 9.12 2.94 13.65 4.44l13.57 4.57c9.07 3 18 6.22 27 9.33 35.89 12.6 71.27 25.91 106.36 39.58s69.87 27.74 104.4 42.08 68.83 29 102.93 43.91 68 30 101.65 45.41l.23.11-.3.34-.24-.1q-50.71-22.82-102.22-44.71t-103.47-43.19q-52-21.23-104.76-41.52c-35.19-13.48-70.66-26.59-106.6-39-9-3.05-18-6.19-27.05-9.13l-13.59-4.48c-4.54-1.47-9.11-2.89-13.66-4.33-18.21-5.8-36.66-11.2-55.23-16.31-17.84-4.85-35.91-9.23-54.22-12.9v9.51l3.26.7 7.22 1.55c2.39.54 4.82 1 7.19 1.6l7.12 1.74 7.12 1.74 3.55.87 3.52.95 14.07 3.77q27.95 7.89 55.28 16.77c4.55 1.48 9.12 2.94 13.66 4.44l13.56 4.57c9.08 3 18 6.21 27 9.33 35.89 12.6 71.27 25.91 106.36 39.58s69.86 27.74 104.42 42.08 68.83 29 102.94 43.91 68 30 101.64 45.41l.24.11-.3.34-.25-.1q-50.7-22.81-102.2-44.71t-103.47-43.19q-52-21.22-104.77-41.52c-35.19-13.48-70.65-26.59-106.59-39-9-3-18-6.19-27.06-9.13l-13.58-4.47c-4.54-1.47-9.11-2.89-13.67-4.33Q92.94 384.06 65 376.45c-16.8-4.57-33.81-8.72-51-12.26v9.06l4 .85 7.21 1.56c2.4.53 4.83 1 7.19 1.59l7.12 1.74 7.12 1.74 3.56.88 3.51.94 14.07 3.78q27.94 7.89 55.29 16.74c4.55 1.48 9.12 2.93 13.65 4.44l13.57 4.57c9.07 3 18 6.21 27 9.33 35.89 12.59 71.27 25.9 106.36 39.57s69.87 27.75 104.42 42.09 68.83 29 102.94 43.9 68 30 101.64 45.42l.24.11-.3.34-.24-.11q-50.73-22.8-102.22-44.71t-103.47-43.18q-52-21.24-104.76-41.53c-35.19-13.47-70.66-26.59-106.6-39-9-3.05-18-6.19-27.05-9.13l-13.59-4.47c-4.54-1.47-9.11-2.89-13.66-4.34-18.21-5.8-36.66-11.19-55.23-16.3-17.05-4.64-34.3-8.84-51.77-12.41v9.05c1.58.32 3.15.68 4.73 1l7.21 1.55c2.4.54 4.83 1 7.2 1.6l7.11 1.74 7.12 1.74 3.56.87 3.52 1 14.06 3.77q27.95 7.89 55.29 16.74c4.55 1.48 9.12 2.93 13.65 4.44l13.55 4.56c9.07 3 18 6.21 27 9.33 35.89 12.59 71.27 25.91 106.36 39.58s69.87 27.74 104.43 42.08 68.82 29 102.93 43.91 68 30 101.65 45.41l.23.11-.3.34-.24-.11q-50.72-22.8-102.22-44.7t-103.45-43.19q-52-21.23-104.76-41.52c-35.19-13.48-70.66-26.59-106.6-39-9-3.05-18-6.19-27.05-9.13l-13.59-4.47c-4.54-1.47-9.11-2.89-13.66-4.33-18.21-5.8-36.66-11.2-55.23-16.31-17.28-4.7-34.78-8.95-52.5-12.55v9.05c1.83.35 3.64.77 5.46 1.15l7.21 1.56c2.4.53 4.83 1 7.2 1.59l7.13 1.76 7.11 1.74 3.56.88 3.52.94 14.07 3.78q27.93 7.89 55.28 16.74c4.55 1.48 9.12 2.93 13.66 4.44l13.56 4.57c9.07 3 18 6.21 27 9.32 35.9 12.6 71.27 25.91 106.36 39.58s69.88 27.75 104.42 42.09 68.83 29 102.93 43.9 68 30 101.65 45.42l.24.11-.31.34-.24-.11q-50.71-22.8-102.22-44.71t-103.47-43.18q-52-21.24-104.76-41.53c-35.19-13.47-70.65-26.59-106.59-39-9-3-18-6.19-27.06-9.13L136.13 438c-4.54-1.47-9.12-2.89-13.67-4.34-18.21-5.8-36.65-11.19-55.23-16.3C49.71 412.62 32 408.31 14 404.68v9.07c2.08.38 4.13.85 6.19 1.29l7.22 1.55c2.39.54 4.82 1 7.19 1.6l7.12 1.74 7.12 1.74 3.55.87 3.52.94L70 427.26q27.95 7.89 55.28 16.74c4.55 1.48 9.12 2.93 13.66 4.44l13.56 4.57c9.08 3 18 6.21 27 9.33 35.89 12.59 71.27 25.91 106.36 39.57s69.86 27.75 104.42 42.09 68.83 29 102.94 43.91 68 30 101.64 45.41l.24.11-.31.34-.24-.11q-50.71-22.8-102.21-44.7t-103.49-43.19q-52-21.22-104.76-41.52c-35.19-13.48-70.65-26.59-106.59-39-9-3.05-18-6.19-27.06-9.13l-13.58-4.47c-4.54-1.47-9.11-2.89-13.67-4.33Q95.88 438.64 68 431.03c-17.76-4.83-35.74-9.19-54-12.85v9.09c2.34.39 4.62.93 6.93 1.41l7.21 1.56c2.39.53 4.83 1 7.19 1.59l7.12 1.71 7.12 1.74 3.56.87 3.51.95 14.07 3.78q27.95 7.89 55.28 16.74c4.56 1.48 9.13 2.93 13.66 4.44l13.57 4.57c9.07 3 18 6.21 27 9.32 35.89 12.59 71.27 25.94 106.36 39.59s69.87 27.77 104.42 42.11 68.83 29 102.94 43.9 68 30 101.64 45.42l.24.11-.3.34-.24-.11q-50.73-22.77-102.22-44.71t-103.47-43.19q-52-21.23-104.77-41.52c-35.19-13.47-70.65-26.59-106.59-39-9-3.05-18-6.19-27-9.13l-13.59-4.47c-4.54-1.48-9.11-2.89-13.67-4.34-18.2-5.8-36.65-11.19-55.22-16.3-18-4.9-36.23-9.31-54.7-13v9.1l.41.08c2.45.4 4.84 1 7.25 1.47l7.21 1.55c2.4.54 4.83 1 7.2 1.6l7.11 1.74 7.12 1.74 3.56.87 3.52.94 14.01 3.8q27.94 7.89 55.29 16.74c4.55 1.48 9.12 2.93 13.65 4.44L154 480.3c9.07 3 18 6.21 27 9.33 35.89 12.59 71.27 25.9 106.36 39.57s69.87 27.75 104.43 42.09 68.82 29 102.93 43.91 68 30 101.64 45.41l.24.11-.3.34-.24-.11q-50.71-22.8-102.22-44.7t-103.52-43.19q-52.02-21.22-104.76-41.52c-35.19-13.48-70.66-26.59-106.6-39-9-3-18-6.19-27.05-9.13l-13.59-4.47c-4.54-1.47-9.11-2.89-13.66-4.33-18.21-5.81-36.66-11.2-55.23-16.31-18.24-5-36.71-9.43-55.43-13.15v9.13l1.14.2c2.46.4 4.84 1 7.25 1.47l7.21 1.59c2.4.53 4.83 1 7.2 1.59l7.12 1.74L51 462.6l3.56.87 3.52.95 14.07 3.78q27.93 7.89 55.28 16.74c4.55 1.48 9.12 2.93 13.66 4.44l13.56 4.57c9.07 3 18 6.21 27 9.32 35.9 12.6 71.27 25.91 106.36 39.58s69.87 27.75 104.43 42.09 68.83 29 102.93 43.9 68 30 101.65 45.42l.24.11-.31.34-.24-.11Q546 651.79 494.52 629.89T391.05 586.7q-52-21.23-104.76-41.52c-35.19-13.47-70.65-26.59-106.59-39-9-3.05-18-6.19-27.06-9.13l-13.58-4.47c-4.54-1.48-9.12-2.89-13.67-4.34q-27.31-8.7-55.23-16.3c-18.47-5-37.16-9.52-56.16-13.27v9.14l1.87.33c2.46.41 4.84 1 7.25 1.48l7.22 1.55c2.39.54 4.82 1 7.19 1.6l7.12 1.77 7.12 1.74 3.55.87 3.52.94 14.07 3.78q27.95 7.89 55.28 16.74c4.55 1.48 9.12 2.93 13.66 4.44l13.56 4.57c9.07 3 18 6.21 27 9.33 35.9 12.59 71.27 25.87 106.37 39.59s69.86 27.7 104.42 42 68.8 29.07 102.93 44 68 30 101.65 45.41l.24.11-.31.34-.24-.11q-50.72-22.85-102.22-44.75t-103.47-43.19q-52-21.24-104.76-41.52c-35.19-13.48-70.65-26.59-106.59-39-9-3-18-6.19-27.06-9.13l-13.58-4.47c-4.54-1.47-9.11-2.89-13.67-4.33-18.21-5.81-36.65-11.2-55.23-16.31S33.45 476 14.34 472.24l-.34-.07v9.15l2.61.47c2.45.4 4.84 1 7.24 1.47l7.22 1.56c2.39.53 4.83 1 7.19 1.59l7.12 1.74 7.12 1.74 3.55.87 3.52.95 14.07 3.83q27.94 7.89 55.28 16.74c4.55 1.48 9.13 2.93 13.66 4.43l13.57 4.58c9.07 3 18 6.21 27 9.32 35.89 12.6 71.27 25.91 106.36 39.58s69.86 27.75 104.42 42.09 68.83 29 102.94 43.9 68 30 101.64 45.42l.24.1-.3.35-.24-.11Q547.48 679.08 496 657.18t-103.48-43.19q-52-21.23-104.77-41.52c-35.19-13.47-70.65-26.59-106.59-39-9-3.05-18-6.19-27-9.13l-13.59-4.47c-4.54-1.48-9.11-2.89-13.67-4.34q-27.31-8.7-55.23-16.3c-18.67-5.03-37.49-9.59-56.6-13.35l-1.07-.19v9.15l3.34.59c2.45.41 4.84 1 7.25 1.48l7.21 1.55c2.4.54 4.83 1 7.19 1.6l7.12 1.74 7.12 1.74 3.56.87 3.51.94 14.07 3.78q27.95 7.89 55.29 16.74c4.55 1.48 9.12 2.93 13.65 4.44l13.57 4.57c9.07 3 18 6.21 27 9.33 35.89 12.59 71.27 25.9 106.36 39.57s69.87 27.76 104.42 42.09 68.83 29 102.94 43.91 68 30 101.64 45.41l.24.11-.3.34-.24-.11q-50.72-22.8-102.22-44.7t-103.47-43.19q-52-21.24-104.76-41.52c-35.19-13.48-70.66-26.59-106.6-39-9-3.05-18-6.19-27-9.13l-13.64-4.45c-4.54-1.47-9.11-2.89-13.66-4.33-18.21-5.81-36.66-11.2-55.23-16.31s-37.45-9.61-56.56-13.36l-1.8-.34v9.15l4.07.73c2.45.4 4.84 1 7.25 1.47l7.21 1.56c2.4.53 4.83 1 7.2 1.59l7.12 1.74 7.15 1.74 3.56.87 3.52 1 14.07 3.78q27.85 7.84 55.24 16.71c4.55 1.48 9.12 2.93 13.65 4.43l13.57 4.57c9.07 3 18 6.21 27 9.32 35.9 12.6 71.27 25.91 106.36 39.58s69.87 27.74 104.43 42.1 68.83 29 102.93 43.9 68 30 101.65 45.41l.24.11-.31.35-.24-.11Q549 706.37 497.45 684.47T394 641.28q-52-21.22-104.76-41.52c-35.19-13.47-70.65-26.59-106.6-39-9-3-18-6.19-27.05-9.13L142 547.19c-4.53-1.48-9.11-2.89-13.66-4.34q-27.34-8.7-55.25-16.31c-18.6-5.06-37.45-9.62-56.56-13.38l-2.53-.45v9.15l4.8.86c2.46.41 4.84 1 7.25 1.48l7.22 1.55c2.39.54 4.82 1 7.19 1.6l7.12 1.74 7.12 1.74 3.55.87 3.52.94 14.07 3.78q27.94 7.89 55.28 16.74c4.55 1.48 9.12 2.93 13.66 4.44l13.56 4.57c9.07 3 18 6.21 27 9.33 35.89 12.59 71.26 25.9 106.36 39.57s69.86 27.75 104.42 42.09 68.83 29 102.93 43.91 68 30 101.65 45.41l.24.11-.31.34-.24-.11q-50.71-22.8-102.22-44.7t-103.46-43.19q-52-21.24-104.76-41.52c-35.19-13.48-70.65-26.59-106.59-39-9-3-18-6.19-27.06-9.13l-13.58-4.47c-4.54-1.47-9.11-2.89-13.67-4.33-18.21-5.81-36.65-11.2-55.23-16.31s-37.44-9.63-56.55-13.36l-3.27-.59v9.16l5.54 1c2.45.4 4.83 1 7.24 1.47L34 539.4c2.39.53 4.83 1 7.19 1.59l7.12 1.74 7.12 1.74 3.55.87 3.52 1 14.07 3.78q27.95 7.89 55.28 16.74c4.55 1.48 9.13 2.93 13.66 4.43l13.57 4.58c9.07 3 18 6.21 27 9.32 35.89 12.6 71.27 25.91 106.36 39.58s69.86 27.75 104.42 42.09 68.83 29 102.94 43.9 68 30 101.64 45.41l.24.11-.3.35-.24-.11q-50.73-22.81-102.22-44.71t-103.47-43.27q-52-21.22-104.77-41.52c-35.19-13.47-70.65-26.59-106.59-39-9-3-18-6.19-27.06-9.13l-13.58-4.47c-4.54-1.48-9.11-2.89-13.67-4.34q-27.32-8.7-55.23-16.3c-18.55-5-37.44-9.56-56.55-13.32l-4-.73v9.16l6.27 1.12c2.45.41 4.84 1 7.25 1.48l7.21 1.55c2.4.54 4.83 1 7.19 1.6l7.08 1.74 7.12 1.74 3.56.87 3.51.94 14.07 3.78q27.95 7.89 55.29 16.74c4.55 1.48 9.12 2.93 13.65 4.44l13.57 4.57c9.07 3 18 6.21 27 9.33 35.89 12.59 71.27 25.9 106.36 39.57s69.87 27.75 104.46 42.09 68.83 29 102.94 43.91 68 30 101.64 45.41l.24.11-.3.34-.24-.11q-50.73-22.8-102.22-44.7t-103.47-43.19q-52-21.24-104.76-41.52c-35.19-13.48-70.66-26.59-106.6-39-9-3-18-6.19-27-9.13l-13.59-4.47c-4.54-1.47-9.11-2.89-13.66-4.33-18.21-5.81-36.66-11.2-55.23-16.31s-37.45-9.61-56.56-13.38l-4.78-.84v9.17l7 1.25c2.45.4 4.84 1 7.25 1.47l7.21 1.56c2.4.53 4.83 1 7.2 1.59l7.11 1.74 7.12 1.74 3.56.87 3.55.91 14 3.82q27.94 7.89 55.29 16.74c4.55 1.48 9.12 2.93 13.65 4.43l13.57 4.58c9.07 3 18 6.21 27 9.32 35.89 12.6 71.27 25.91 106.36 39.58s69.87 27.75 104.43 42.09 68.83 29 102.93 43.9 68 30 101.65 45.41l.23.11-.3.35-.24-.11q-50.72-22.82-102.22-44.71t-103.44-43.19q-52-21.23-104.76-41.52c-35.19-13.47-70.66-26.59-106.6-39-9-3.05-18-6.19-27.05-9.13l-13.59-4.47c-4.54-1.48-9.11-2.89-13.66-4.34q-27.31-8.7-55.23-16.3c-18.6-5.06-37.45-9.62-56.56-13.38l-5.46-1v9.16l7.73 1.38c2.46.41 4.84 1 7.25 1.48l7.21 1.55c2.4.54 4.83 1 7.2 1.6l7.12 1.74 7.11 1.74 3.56.87 3.52.94 14.07 3.78q27.95 7.89 55.28 16.74c4.55 1.48 9.12 2.93 13.66 4.44l13.56 4.57c9.07 3 18 6.21 27 9.33 35.89 12.59 71.26 25.9 106.35 39.57s69.87 27.75 104.43 42.09 68.83 29 102.93 43.91 68 30 101.65 45.41l.24.11-.31.34-.24-.11q-50.72-22.8-102.22-44.7t-103.46-43.12q-52-21.24-104.76-41.52c-35.19-13.48-70.65-26.59-106.59-39-9-3.05-18-6.19-27.06-9.13l-13.58-4.47c-4.54-1.47-9.12-2.89-13.67-4.34-18.21-5.8-36.65-11.19-55.23-16.3s-37.44-9.61-56.56-13.38L14 580.27v9.16l8.47 1.52c2.45.4 4.83 1 7.24 1.47l7.22 1.56c2.39.53 4.82 1 7.19 1.59l7.12 1.74 7.12 1.74 3.55.87 3.52 1 14.07 3.78q27.94 7.89 55.28 16.74c4.55 1.48 9.12 2.93 13.66 4.43L162 630.4c9.08 3 18 6.21 27 9.32 35.89 12.6 71.27 25.91 106.36 39.58s69.86 27.75 104.42 42.08 68.83 29 102.94 43.91 68 30 101.64 45.41l.24.11-.3.35-.25-.11q-50.7-22.81-102.2-44.71t-103.47-43.19q-52-21.23-104.77-41.52C258.42 668.16 223 655.04 187 642.66c-9-3-18-6.19-27.06-9.13l-13.58-4.47c-4.54-1.48-9.11-2.89-13.67-4.34q-27.31-8.7-55.23-16.3c-18.58-5.06-37.46-9.62-56.53-13.38L14 593.78v9.17l9.2 1.64c2.45.4 4.84 1 7.25 1.48l7.21 1.55c2.4.54 4.83 1 7.19 1.6l7.15 1.74 7.12 1.74 3.56.87 3.51.94 14.07 3.78q27.94 7.89 55.29 16.74c4.55 1.48 9.12 2.93 13.65 4.44l13.57 4.57c9.07 3 18 6.21 27 9.33 35.89 12.59 71.27 25.9 106.36 39.57s69.87 27.75 104.39 42.09 68.83 29 102.94 43.91 68 30 101.64 45.41l.24.11-.3.34-.24-.11q-50.73-22.8-102.22-44.71T399.11 736.8q-52-21.24-104.76-41.52c-35.19-13.48-70.66-26.59-106.6-39-9-3-18-6.19-27.05-9.13l-13.59-4.47c-4.54-1.47-9.11-2.89-13.66-4.34-18.21-5.8-36.66-11.19-55.23-16.3s-37.45-9.61-56.56-13.38L14 607.29v10.18l10 1.79c2.46.4 4.84 1 7.25 1.47l7.22 1.55c2.39.54 4.82 1 7.19 1.6l7.12 1.74 7.12 1.74 3.55.87 3.52.94L81 632.95q28 7.89 55.3 16.74c4.55 1.48 9.12 2.93 13.66 4.44l13.56 4.57c9.08 3 18 6.21 27 9.33 35.89 12.59 71.27 25.91 106.36 39.57s69.86 27.75 104.42 42.09 68.83 29 102.94 43.91 68 30 101.64 45.41l.24.11-.31.34-.24-.11q-50.72-22.8-102.21-44.7t-103.47-43.19q-52-21.23-104.76-41.52c-35.19-13.48-70.65-26.59-106.59-39-9-3-18-6.19-27.06-9.13l-13.58-4.47c-4.54-1.47-9.11-2.89-13.67-4.33q-27.31-8.68-55.23-16.29c-18.6-5.06-37.44-9.61-56.55-13.37L14 621.81v9.17l10.72 1.92c2.45.4 4.84 1 7.25 1.47l7.21 1.56c2.39.53 4.83 1 7.19 1.59l7.12 1.74 7.12 1.74 3.56.87 3.51.95 14.07 3.78q27.95 7.94 55.25 16.74c4.56 1.48 9.13 2.93 13.66 4.44l13.57 4.57c9.07 3 18 6.21 27 9.32 35.89 12.6 71.27 25.91 106.36 39.58S367.49 749 402 763.34s68.83 29 102.94 43.9 68 30 101.64 45.42l.24.11-.3.34-.24-.11q-50.73-22.8-102.22-44.71T400.63 765.1q-52-21.22-104.77-41.52c-35.19-13.47-70.65-26.59-106.59-39-9-3.05-18-6.19-27.05-9.13l-13.59-4.47c-4.54-1.48-9.11-2.89-13.67-4.34-18.2-5.8-36.65-11.19-55.22-16.3s-37.45-9.62-56.56-13.38L14 635.32v9.22l11.45 2c2.45.4 4.84 1 7.25 1.47l7.21 1.53c2.4.54 4.83 1 7.2 1.6l7.11 1.74 7.12 1.74 3.56.87 3.52.94 14.06 3.78q27.94 7.89 55.29 16.74c4.55 1.48 9.12 2.93 13.65 4.44l13.58 4.6c9.07 3 18 6.21 27 9.33 35.89 12.59 71.27 25.9 106.36 39.57s69.87 27.75 104.43 42.09 68.82 29 102.93 43.91 68 30 101.64 45.41l.24.11-.3.34-.24-.11q-50.71-22.8-102.22-44.7t-103.48-43.19q-52-21.24-104.76-41.52c-35.19-13.48-70.66-26.59-106.6-39-9-3.05-18-6.19-27.05-9.13l-13.59-4.47c-4.54-1.47-9.11-2.89-13.66-4.33-18.21-5.76-36.7-11.18-55.23-16.29S43 654.4 23.91 650.64L14 648.83v9.18l12.18 2.18c2.46.4 4.84 1 7.25 1.47l7.21 1.56c2.4.53 4.83 1 7.2 1.59l7.16 1.73 7.11 1.74 3.56.87 3.52 1 14.07 3.78q27.93 7.89 55.28 16.74c4.55 1.48 9.12 2.93 13.66 4.44l13.56 4.57c9.07 3 18 6.21 27 9.32 35.86 12.54 71.24 25.87 106.32 39.54s69.92 27.75 104.43 42.09 68.83 29 102.93 43.9 68 30 101.65 45.42l.24.11-.31.34-.24-.11q-50.71-22.81-102.22-44.75t-103.47-43.15q-52-21.23-104.76-41.52c-35.19-13.47-70.65-26.59-106.59-39-9-3.05-18-6.19-27.06-9.13l-13.58-4.47c-4.54-1.48-9.12-2.89-13.67-4.34q-27.32-8.7-55.23-16.3c-18.6-5.06-37.45-9.62-56.56-13.38L14 662.35v9.19l12.91 2.3c2.46.41 4.84 1 7.25 1.48l7.22 1.55c2.39.54 4.82 1 7.19 1.6l7.12 1.74 7.12 1.74 3.55.87 3.52.94L84 687.54q27.94 7.89 55.28 16.74c4.55 1.48 9.12 2.93 13.66 4.44l13.56 4.57c9.07 3 18 6.21 27 9.33 35.89 12.59 71.26 25.9 106.36 39.57s69.86 27.75 104.42 42.09 68.83 29 102.93 43.91 68 30 101.65 45.41l.24.11-.31.34-.24-.11q-50.71-22.8-102.22-44.7t-103.51-43.2q-52-21.24-104.76-41.52c-35.19-13.48-70.65-26.59-106.59-39-9-3-18-6.19-27.06-9.13l-13.58-4.47c-4.54-1.47-9.11-2.89-13.67-4.33-18.21-5.81-36.65-11.2-55.23-16.31s-37.44-9.61-56.55-13.37L14 675.86v9.18l13.65 2.44c2.45.4 4.84 1 7.24 1.47l7.22 1.59c2.39.53 4.83 1 7.19 1.59l7.12 1.74 7.12 1.67 3.55.87 3.52 1 14.07 3.78q27.94 7.89 55.28 16.74c4.56 1.48 9.13 2.93 13.66 4.43l13.57 4.58c9.07 3 18 6.21 27 9.32 35.89 12.6 71.27 25.91 106.36 39.58s69.86 27.7 104.45 42.08 68.83 29 102.94 43.9 68 30 101.64 45.42l.24.1-.3.35-.24-.11Q558.52 884.77 507 862.87t-103.44-43.19q-52-21.23-104.77-41.52c-35.19-13.47-70.65-26.59-106.59-39-9-3-18-6.19-27-9.13l-13.59-4.47c-4.54-1.48-9.11-2.89-13.67-4.34q-27.31-8.7-55.23-16.3c-18.6-5.06-37.44-9.62-56.55-13.38L14 689.37v8.32l14.33 2.56c2.46.4 4.84 1 7.25 1.47l7.21 1.56c2.4.53 4.83 1 7.2 1.59l7.12 1.74 7.11 1.74 3.56.87 3.52 1L85.37 714q27.93 7.89 55.28 16.74c4.55 1.48 9.12 2.93 13.66 4.43l13.56 4.58c9.07 3 18 6.21 27 9.32 35.9 12.6 71.27 25.91 106.36 39.58s69.87 27.75 104.43 42.09 68.83 29 102.93 43.9 68 30 101.65 45.42l.24.1-.31.35-.24-.11q-50.71-22.86-102.22-44.76t-103.47-43.19q-52-21.23-104.76-41.52c-35.19-13.47-70.65-26.59-106.59-39-9-3-18-6.19-27.06-9.13l-13.58-4.47c-4.54-1.48-9.12-2.89-13.67-4.34q-27.31-8.7-55.23-16.3c-18.6-5.06-37.45-9.62-56.56-13.38L14 702.02v9.2l.43.06 14.63 2.61c2.46.41 4.84 1 7.25 1.48l7.22 1.55c2.39.54 4.82 1 7.19 1.6l7.12 1.74L65 722l3.55.87 3.52.94 14.07 3.78q27.95 7.89 55.28 16.74c4.55 1.48 9.12 2.93 13.66 4.44l13.56 4.57c9.07 3 18 6.21 27 9.33 35.86 12.59 71.24 25.87 106.36 39.57s69.86 27.75 104.42 42.09 68.83 29 102.94 43.91 68 30 101.64 45.41l.24.11-.31.34-.24-.11q-50.71-22.8-102.22-44.7T405 846.1q-52-21.24-104.79-41.56c-35.19-13.48-70.65-26.59-106.59-39-9-3-18-6.19-27.06-9.13L153 752c-4.54-1.47-9.11-2.89-13.67-4.33-18.21-5.81-36.65-11.2-55.23-16.31s-37.44-9.61-56.55-13.37L14 715.54v9.22l1.16.17 14.64 2.61c2.45.4 4.84 1 7.24 1.47l7.22 1.53c2.39.53 4.83 1 7.19 1.59l7.12 1.74 7.12 1.74 3.56.87 3.51.95 14.07 3.78q27.94 7.89 55.28 16.74c4.56 1.48 9.13 2.93 13.66 4.43l13.57 4.58c9.07 3 18 6.21 27 9.32 35.89 12.6 71.27 25.91 106.36 39.58s69.86 27.75 104.42 42.09 68.83 29 102.94 43.9 68 30 101.64 45.41l.24.11-.3.35-.24-.11q-50.73-22.82-102.22-44.71t-103.47-43.16q-52-21.23-104.77-41.52c-35.19-13.47-70.65-26.59-106.59-39-9-3.05-18-6.19-27-9.13l-13.59-4.47c-4.54-1.48-9.11-2.89-13.67-4.34q-27.32-8.7-55.23-16.3c-18.6-5.06-37.44-9.62-56.55-13.38L14 729.04v10.26l2 .29 14.63 2.61c2.46.4 4.84 1 7.25 1.47l7.22 1.56c2.39.54 4.82 1 7.19 1.59l7.07 1.72 7.12 1.74 3.55.88 3.52.94 14.07 3.78q27.94 7.89 55.28 16.74c4.55 1.48 9.12 2.93 13.66 4.44l13.56 4.57c9.07 3 18 6.21 27 9.33 35.88 12.58 71.27 25.92 106.37 39.58s69.86 27.75 104.42 42.09 68.83 29 102.93 43.9 68 30 101.65 45.42l.24.11-.31.34-.24-.11q-50.71-22.75-102.18-44.7t-103.51-43.18q-52-21.24-104.76-41.53c-35.19-13.47-70.65-26.58-106.59-39-9-3-18-6.19-27.06-9.13l-13.58-4.47c-4.54-1.47-9.11-2.89-13.67-4.34-18.21-5.8-36.65-11.19-55.23-16.3s-37.44-9.62-56.55-13.38l-14.41-2.58-.64-.14v9.26l2.68.39 14.64 2.62c2.45.4 4.83 1 7.24 1.47l7.22 1.55c2.39.54 4.83 1 7.19 1.6l7.12 1.74 7.12 1.74 3.55.87 3.52 1 14.07 3.76q27.95 7.89 55.28 16.74c4.55 1.48 9.13 2.94 13.66 4.44l13.57 4.57c9.07 3 18 6.22 27 9.33 35.89 12.6 71.27 25.91 106.36 39.58s69.86 27.74 104.42 42.08 68.83 29 102.94 43.91 68 30 101.64 45.41l.24.11-.3.34-.24-.1q-50.73-22.81-102.22-44.71t-103.47-43.19q-52-21.22-104.77-41.52c-35.19-13.48-70.65-26.59-106.59-39-9-3.06-18-6.2-27.06-9.14l-13.58-4.47c-4.54-1.47-9.11-2.89-13.67-4.33q-27.32-8.7-55.23-16.31c-18.6-5.06-37.44-9.61-56.55-13.37l-14.41-2.59-1.37-.2v9.26l3.42.49 14.63 2.67c2.45.4 4.84 1 7.25 1.47l7.21 1.53c2.4.53 4.83 1 7.19 1.59l7.12 1.74 7.12 1.74 3.56.88 3.51.94 14.07 3.78q27.94 7.89 55.29 16.74c4.55 1.48 9.12 2.93 13.65 4.44l13.57 4.57c9.07 3 18 6.21 27 9.33 35.89 12.59 71.27 25.9 106.36 39.57s69.87 27.75 104.42 42.09 68.83 29 102.94 43.9 68 30 101.64 45.42l.24.11-.3.34-.24-.11q-50.73-22.8-102.22-44.71T408 901.7q-52-21.24-104.76-41.53c-35.19-13.47-70.66-26.59-106.6-39-9-3-18-6.19-27-9.13L156 807.6c-4.54-1.47-9.11-2.89-13.66-4.34-18.21-5.8-36.66-11.19-55.23-16.3s-37.49-9.62-56.6-13.42l-14.4-2.61-2.11-.28v9.26l4.15.61 14.63 2.62c2.45.4 4.84 1 7.25 1.47l7.21 1.55c2.4.54 4.83 1 7.2 1.6l7.11 1.78 7.12 1.74 3.56.87 3.52.95 14.06 3.77q27.94 7.89 55.29 16.74c4.55 1.48 9.12 2.93 13.65 4.44l13.57 4.49c9.07 3 18 6.21 27 9.33 35.89 12.67 71.27 25.95 106.36 39.67s69.87 27.69 104.43 42 68.83 29 102.93 43.91q47.44 20.71 94.33 42.08h578.82V0M307.62 942.54c-35.19-13.47-70.65-26.59-106.6-39-9-3.05-18-6.19-27.05-9.13l-13.59-4.47c-4.53-1.48-9.11-2.89-13.66-4.34q-27.31-8.7-55.23-16.3c-18.6-5.06-37.45-9.62-56.56-13.38l-14.4-2.62-6.53-1v10.29l8.63 1.25 14.63 2.7c2.45.4 4.84 1 7.25 1.47l7.21 1.56c2.4.53 4.83 1 7.19 1.59l7.09 1.76 7.12 1.74 3.56.88 3.51.94 14.07 3.78q27.94 7.89 55.29 16.74c4.55 1.48 9.12 2.93 13.65 4.44l13.57 4.57c9.07 3 18 6.21 27 9.32 35.89 12.6 71.27 25.91 106.36 39.58S380 982.66 414.58 997l6.12 2.56H450q-18.74-7.78-37.57-15.46-52.07-21.22-104.81-41.56z" fill="none"/><path d="M409.42 928.99q-52-21.24-104.76-41.53c-35.19-13.47-70.65-26.59-106.59-39-9-3.05-18-6.19-27.06-9.13l-13.58-4.47c-4.54-1.47-9.12-2.89-13.67-4.34-18.21-5.8-36.65-11.19-55.23-16.3S51.09 804.63 32 800.87l-14.4-2.61-3.6-.54v9.27l5.61.82 14.64 2.62c2.45.4 4.83 1 7.24 1.47l7.22 1.55c2.39.54 4.82 1 7.19 1.6l7.1 1.74 7.14 1.75 3.55.87 3.52.94 14.07 3.78q27.94 7.89 55.28 16.74c4.55 1.48 9.12 2.93 13.66 4.44l13.56 4.57c9.08 3 18 6.21 27 9.33 35.89 12.59 71.27 25.91 106.36 39.58s69.86 27.75 104.43 42.07 68.83 29 102.94 43.91q16.83 7.35 33.61 14.79h28q-31.49-13.85-63.2-27.39-51.46-21.96-103.5-43.18zm-256.83 65.98c-18.21-5.8-36.66-11.2-55.23-16.31s-37.45-9.61-56.56-13.37l-14.41-2.62L14 960.83v9.29l14.44 2.1 14.63 2.62c2.45.4 4.84 1 7.25 1.47l7.21 1.56c2.4.53 4.83 1 7.2 1.59l7.11 1.74 7.16 1.74 3.56.87 3.52 1 14.02 3.73q18.77 5.29 37.24 11H167l-.78-.26c-4.51-1.45-9.08-2.87-13.63-4.31zm155.82-37.73c-35.19-13.47-70.66-26.59-106.6-39-9-3.05-18-6.19-27.05-9.13l-13.59-4.47c-4.54-1.48-9.11-2.89-13.66-4.34-18.21-5.8-36.66-11.19-55.23-16.3s-37.45-9.62-56.56-13.38L21.32 868 14 866.95v9.27l9.36 1.37L38 880.21c2.45.4 4.84 1 7.25 1.47l7.21 1.55c2.4.54 4.83 1 7.2 1.6l7.1 1.71 7.12 1.74 3.56.87 3.52.94L95 893.9q27.95 7.89 55.29 16.74c4.55 1.48 9.12 2.93 13.65 4.44l13.57 4.57c9.07 3 18 6.21 27 9.33 35.91 12.56 71.29 25.91 106.38 39.56q39 15.21 77.52 31h26.69l-1.93-.8q-52.02-21.2-104.76-41.5zm-130.72 6.48l-13.59-4.47c-4.54-1.48-9.11-2.89-13.66-4.34-18.21-5.8-36.66-11.2-55.23-16.3s-37.45-9.62-56.56-13.38l-14.41-2.62L14 921.09v9.29l12.29 1.79 14.63 2.61c2.45.41 4.84 1 7.25 1.48l7.21 1.55c2.4.54 4.83 1 7.2 1.6l7.11 1.74 7.12 1.74 3.56.87 3.52.94L98 948.48q27.94 7.89 55.29 16.74c4.55 1.48 9.12 2.93 13.65 4.44l13.57 4.57c9.07 3 18 6.21 27 9.33q22.31 7.83 44.35 16h27.1q-36.81-13.75-74.17-26.71c-9.06-3.05-18.02-6.19-27.1-9.13z" fill="none"/><path d="M178.42 977.36l-13.59-4.47c-4.54-1.47-9.11-2.89-13.66-4.33-18.21-5.81-36.66-11.2-55.23-16.31s-37.45-9.61-56.56-13.37L25 936.26l-11-1.63V943l13 1.89 14.6 2.65c2.46.4 4.84 1 7.25 1.48l7.21 1.52c2.4.54 4.83 1 7.2 1.59l7.12 1.74 7.11 1.74 3.56.88 3.52.94 14.07 3.78q27.93 7.89 55.28 16.74c4.55 1.48 9.12 2.93 13.66 4.44l13.56 4.57c9.07 3 18 6.21 27 9.33 3.1 1.08 6.18 2.18 9.27 3.28h25.08q-18.44-6.64-37-13.07c-9.03-3.06-17.99-6.2-27.07-9.14zm-136.89 1.57l-14.4-2.62L14 974.36v9.3h.38l14.79 2.16 14.63 2.72c2.46.4 4.84 1 7.25 1.47l7.21 1.53c2.4.54 4.83 1 7.2 1.6l7.12 1.74 7.11 1.74 3.56.87 3.52.94 4.29 1.16h32.56q-12.72-3.72-25.53-7.25c-18.6-5.09-37.45-9.65-56.56-13.41z" fill="none"/><path d="M179.1 990.08l-13.58-4.47c-4.54-1.47-9.12-2.89-13.67-4.34-18.21-5.8-36.65-11.19-55.23-16.3s-37.45-9.61-56.56-13.38l-14.4-2.61L14 947.24v9.3l13.7 2 14.64 2.62c2.45.4 4.84 1 7.25 1.47l7.21 1.55c2.4.54 4.83 1 7.19 1.6l7.12 1.76 7.12 1.74 3.56.87 3.51.94 14.07 3.78q27.94 7.89 55.29 16.74c4.55 1.48 9.12 2.93 13.65 4.44l10.35 3.49h28.49l-1-.35c-9.01-3.03-17.97-6.17-27.05-9.11zM204 959.2c-9-3-18-6.19-27.06-9.13l-13.58-4.47c-4.54-1.47-9.11-2.89-13.67-4.33-18.21-5.81-36.65-11.2-55.23-16.31S57 915.35 37.92 911.59l-14.41-2.62-9.51-1.43v9.28l11.55 1.72 14.64 2.62c2.45.4 4.84 1 7.25 1.47l7.21 1.56c2.4.53 4.83 1 7.19 1.59l7.16 1.76 7.12 1.74 3.56.87 3.51.95 14.07 3.78q27.94 7.89 55.29 16.74c4.55 1.48 9.12 2.93 13.65 4.43l13.57 4.58c9.07 3 18 6.21 27 9.32q40.71 14.29 80.63 29.65h26.81l-3.57-1.38C275.41 984.7 240 971.59 204 959.2zM27.86 989.96L14 987.9v8.38l1.07.15 14.78 2.16 5.43 1H74c-10.49-2.54-21-4.89-31.69-7z" fill="none"/><path d="M203.28 945.54c-9-3-18-6.19-27.06-9.13l-13.58-4.47c-4.54-1.48-9.12-2.89-13.67-4.34q-27.31-8.7-55.23-16.3c-18.6-5.06-37.44-9.62-56.55-13.38l-14.41-2.6-8.78-1.3v9.28l10.82 1.58 14.64 2.66c2.45.41 4.83 1 7.24 1.48l7.22 1.52c2.39.54 4.82 1 7.19 1.6l7.12 1.74 7.12 1.74 3.55.87 3.52.94 14.07 3.78q27.95 7.89 55.28 16.74c4.55 1.48 9.12 2.93 13.66 4.44l13.57 4.55c9.08 3 18 6.21 27 9.33 35.89 12.59 71.27 25.9 106.36 39.57 3.15 1.23 6.29 2.48 9.43 3.72h26.71q-19.26-7.57-38.63-15c-35.19-13.5-70.65-26.62-106.59-39.02z" fill="none"/><path d="M202.54 931.91c-9-3-18-6.19-27-9.13l-13.59-4.47c-4.53-1.47-9.11-2.89-13.66-4.33-18.29-5.81-36.7-11.2-55.29-16.31s-37.45-9.61-56.56-13.37l-14.4-2.62-8-1.2v9.28l10.09 1.47 14.63 2.62c2.46.4 4.84 1 7.25 1.47l7.21 1.56c2.4.53 4.83 1 7.2 1.59l7.12 1.74 7.11 1.74 3.56.87 3.52 1 14.03 3.72q27.94 7.89 55.28 16.74c4.55 1.48 9.12 2.93 13.66 4.44l13.56 4.57c9.07 3 18 6.21 27 9.32 35.89 12.6 71.26 25.91 106.35 39.58q22 8.58 43.82 17.36h26.68q-36.31-14.58-73-28.67c-35.11-13.47-70.63-26.58-106.57-38.97z" fill="none"/><path d="M15.05 746.75c19.11 3.76 38 8.32 56.55 13.38s37 10.5 55.23 16.3c4.56 1.45 9.13 2.87 13.67 4.34l13.58 4.47c9.09 2.94 18 6.08 27.06 9.13 35.94 12.39 71.4 25.5 106.59 39s70.08 27.37 104.76 41.53 69.18 28.51 103.51 43.15 68.41 29.51 102.22 44.71l.24.11.31-.34-.24-.11Q548.06 939.26 496.84 917t-102.93-43.9q-51.84-21.51-104.42-42.1c-35.1-13.67-70.47-27-106.36-39.57-9-3.12-17.94-6.32-27-9.33l-13.56-4.57c-4.54-1.51-9.11-3-13.66-4.44q-27.3-8.91-55.28-16.74l-14.07-3.78-3.56-.93-3.55-.88-7.09-1.76-7.12-1.74c-2.37-.59-4.8-1-7.19-1.59l-7.22-1.56c-2.41-.5-4.79-1.07-7.25-1.47L2 740.05l-2-.29V744l.64.1z" transform="translate(14 -.46)" fill="url(#a)"/><path d="M70.08 731.82c18.58 5.11 37 10.5 55.23 16.31 4.56 1.44 9.13 2.86 13.67 4.33l13.58 4.47c9.09 2.94 18 6.08 27.06 9.13 35.94 12.39 71.4 25.5 106.59 39s70.08 27.34 104.79 41.5 69.18 28.54 103.47 43.19 68.41 29.5 102.22 44.7l.24.11.31-.34-.24-.11Q546.54 911 495.33 888.7t-102.94-43.91Q340.55 823.28 288 802.7c-35.09-13.67-70.47-27-106.36-39.57-9-3.12-17.94-6.32-27-9.33L141 749.23c-4.54-1.51-9.11-3-13.66-4.44q-27.28-8.91-55.28-16.74L58 724.27l-3.52-.94-3.48-.87-7.12-1.74-7.16-1.72c-2.37-.6-4.8-1.06-7.19-1.6l-7.22-1.55c-2.41-.51-4.79-1.07-7.25-1.48L.43 711.74l-.43-.06V716l13.53 2.46c19.11 3.75 37.95 8.3 56.55 13.36z" transform="translate(14 -.46)" fill="url(#c)"/><path d="M68.66 705.41q27.87 7.65 55.23 16.3c4.56 1.45 9.13 2.86 13.67 4.34l13.59 4.47c9.08 2.94 18 6.08 27 9.13 35.94 12.38 71.4 25.5 106.59 39s70.14 27.35 104.82 41.49 69.17 28.55 103.44 43.19 68.4 29.5 102.22 44.71l.24.11.3-.35-.24-.1q-50.43-23.16-101.64-45.42T391 818.38q-51.84-21.51-104.42-42.09c-35.09-13.67-70.47-27-106.36-39.58-9-3.11-17.93-6.32-27-9.32l-13.57-4.58c-4.53-1.5-9.1-2.95-13.66-4.43q-27.28-8.91-55.28-16.74l-14.07-3.78-3.52-1-3.58-.86-7.12-1.74-7.12-1.74c-2.36-.59-4.8-1.06-7.19-1.59l-7.22-1.56c-2.4-.5-4.79-1.07-7.24-1.47L0 685.5v4.33L12.11 692c19.11 3.79 37.95 8.35 56.55 13.41z" transform="translate(14 -.46)" fill="url(#d)"/><path d="M67.2 678.12q27.87 7.65 55.23 16.3c4.55 1.45 9.13 2.86 13.67 4.34l13.58 4.47c9.08 2.94 18 6.08 27.06 9.13 35.94 12.38 71.4 25.5 106.59 39s70.08 27.37 104.76 41.52S457.27 821.4 491.56 836s68.41 29.5 102.22 44.71l.24.11.31-.34-.24-.11Q543.66 857.25 492.44 835t-102.93-43.9q-51.84-21.52-104.43-42.1c-35.09-13.67-70.46-27-106.36-39.58-9-3.11-17.93-6.32-27-9.32l-13.56-4.57c-4.54-1.51-9.11-3-13.66-4.44q-27.3-8.91-55.28-16.74l-14.07-3.78-3.52-1-3.56-.87L41 667l-7.12-1.74c-2.37-.59-4.8-1.06-7.2-1.59l-7.21-1.56c-2.41-.5-4.79-1.07-7.25-1.47L0 658.47v4.34l10.64 1.93c19.11 3.76 37.96 8.32 56.56 13.38z" transform="translate(14 -.46)" fill="url(#e)"/><path d="M70.81 745.47q27.87 7.65 55.23 16.3c4.56 1.45 9.13 2.86 13.67 4.34l13.59 4.47c9.08 2.94 18 6.08 27 9.13 35.94 12.38 71.4 25.5 106.59 39S357 846.05 391.71 860.2s69.18 28.55 103.47 43.19 68.4 29.5 102.22 44.71l.24.11.3-.35-.24-.11q-50.43-23.14-101.64-45.41t-102.94-43.9q-51.84-21.51-104.42-42.09c-35.09-13.67-70.47-27-106.36-39.58-9-3.11-17.93-6.32-27-9.32l-13.57-4.58c-4.53-1.5-9.1-3-13.66-4.43q-27.29-8.91-55.28-16.74l-14.07-3.78-3.51-.92-3.56-.87-7.12-1.74-7.12-1.74c-2.36-.59-4.8-1.06-7.19-1.59L23 729.47c-2.4-.5-4.79-1.07-7.24-1.47l-14.6-2.62-1.16-.17v4.29l14.26 2.59c19.11 3.76 37.95 8.32 56.55 13.38z" transform="translate(14 -.46)" fill="url(#f)"/><path d="M69.35 718.18q27.87 7.65 55.23 16.3c4.55 1.45 9.13 2.86 13.67 4.34l13.58 4.47c9.08 2.94 18 6.08 27.06 9.13 35.94 12.38 71.4 25.5 106.59 39s70.08 27.37 104.76 41.52 69.18 28.55 103.47 43.19 68.41 29.5 102.22 44.71l.24.11.31-.35-.24-.1q-50.43-23.16-101.65-45.42t-102.93-43.9q-51.84-21.51-104.43-42.09c-35.09-13.67-70.46-27-106.36-39.58-9-3.11-17.93-6.32-27-9.32l-13.56-4.58c-4.54-1.5-9.11-3-13.66-4.43q-27.3-8.91-55.28-16.74l-14.07-3.81-3.52-1-3.56-.87-7.11-1.74-7.11-1.69c-2.37-.59-4.8-1.06-7.2-1.59l-7.21-1.56c-2.41-.5-4.79-1.07-7.25-1.47L0 698.15v4.33l12.79 2.32c19.11 3.76 37.96 8.32 56.56 13.38z" transform="translate(14 -.46)" fill="url(#g)"/><path d="M67.93 691.76c18.58 5.11 37 10.5 55.23 16.31 4.56 1.44 9.13 2.86 13.67 4.33l13.58 4.47c9.09 2.94 18 6.08 27.06 9.13 35.94 12.39 71.4 25.5 106.59 39s70.08 27.36 104.76 41.52 69.18 28.53 103.47 43.17 68.41 29.5 102.22 44.7l.24.11.31-.34-.24-.11q-50.43-23.16-101.65-45.41t-102.93-43.91q-51.84-21.51-104.42-42.09c-35.1-13.67-70.47-27-106.36-39.57-9-3.12-17.94-6.32-27-9.33l-13.56-4.57c-4.54-1.51-9.11-3-13.66-4.44Q97.95 695.82 70 688l-14.07-3.78-3.52-.94-3.55-.87-7.12-1.74-7.12-1.74c-2.37-.6-4.8-1.06-7.19-1.6l-7.22-1.55c-2.41-.51-4.79-1.07-7.25-1.48L0 672v4.33l11.38 2.07c19.11 3.75 37.95 8.3 56.55 13.36z" transform="translate(14 -.46)" fill="url(#h)"/><path d="M60.55 554.3q27.87 7.65 55.23 16.3c4.56 1.45 9.13 2.86 13.67 4.34l13.55 4.47c9.09 2.94 18 6.08 27.06 9.13 35.94 12.38 71.4 25.5 106.59 39s70.12 27.34 104.8 41.46 69.17 28.55 103.47 43.19 68.4 29.5 102.22 44.71l.24.11.3-.35-.24-.11Q537 733.44 485.8 711.17t-102.94-43.9Q331 645.76 278.44 625.18c-35.09-13.67-70.47-27-106.36-39.58-9-3.11-17.93-6.32-27-9.32l-13.57-4.58c-4.53-1.5-9.11-3-13.66-4.43q-27.28-8.91-55.28-16.74l-14.07-3.78-3.52-1-3.55-.87-7.12-1.74-7.12-1.74c-2.36-.59-4.8-1.06-7.19-1.59l-7.22-1.56c-2.41-.5-4.79-1.07-7.24-1.47l-5.54-1v4.35l4 .73c19.11 3.82 38 8.38 56.55 13.44z" transform="translate(14 -.46)" fill="url(#i)"/><path d="M59.09 527q27.87 7.65 55.23 16.3c4.55 1.45 9.13 2.86 13.66 4.34l13.59 4.47c9.08 2.94 18 6.08 27.05 9.13 35.95 12.38 71.41 25.5 106.6 39s70.08 27.35 104.78 41.5 69.18 28.55 103.47 43.19 68.41 29.5 102.22 44.71l.24.11.31-.35-.24-.11q-50.43-23.14-101.65-45.41T381.4 640q-51.84-21.53-104.4-42.11c-35.09-13.67-70.46-27-106.36-39.58-9-3.11-17.93-6.32-27-9.32L130 544.41c-4.53-1.5-9.1-2.95-13.65-4.43q-27.3-8.91-55.28-16.74L47 519.46l-3.52-1-3.48-.82-7.11-1.74-7.12-1.74c-2.37-.59-4.8-1.06-7.2-1.59L11.32 511c-2.41-.5-4.8-1.07-7.25-1.47L0 508.81v4.36l2.53.46C21.64 517.39 40.49 522 59.09 527z" transform="translate(14 -.46)" fill="url(#j)"/><path d="M15.78 760.4c19.11 3.76 37.95 8.31 56.55 13.37s37 10.51 55.23 16.31c4.56 1.44 9.13 2.86 13.67 4.33l13.58 4.47c9.09 2.94 18 6.08 27.06 9.14 35.94 12.38 71.4 25.49 106.59 39s70.09 27.37 104.77 41.52 69.17 28.52 103.47 43.16 68.4 29.5 102.22 44.71l.24.1.3-.34-.24-.11q-50.43-23.16-101.64-45.41t-102.94-43.91q-51.84-21.51-104.42-42.08c-35.09-13.67-70.47-27-106.36-39.58-9-3.11-17.93-6.32-27-9.33l-13.57-4.57c-4.53-1.5-9.11-3-13.66-4.44q-27.28-8.91-55.28-16.74l-14.07-3.77-3.52-1-3.55-.87-7.12-1.74-7.09-1.69c-2.36-.6-4.8-1.06-7.19-1.6l-7.22-1.55c-2.41-.51-4.79-1.07-7.24-1.47l-14.67-2.62L0 753.3v4.28l1.37.2z" transform="translate(14 -.46)" fill="url(#k)"/><path d="M66.47 664.47c18.57 5.11 37 10.5 55.23 16.31 4.55 1.44 9.12 2.86 13.66 4.33l13.64 4.47c9.08 2.94 18 6.08 27.05 9.13 35.94 12.39 71.41 25.5 106.6 39s70.08 27.36 104.76 41.52 69.18 28.55 103.47 43.19 68.41 29.5 102.22 44.7l.24.11.3-.34-.24-.11q-50.42-23.16-101.64-45.41t-102.98-43.93q-51.84-21.51-104.43-42.09c-35.09-13.67-70.47-27-106.36-39.57-9-3.12-17.93-6.32-27-9.33l-13.57-4.57c-4.53-1.51-9.1-3-13.65-4.44q-27.3-8.91-55.29-16.74l-14.06-3.78-3.52-.92-3.56-.87-7.12-1.74-7.11-1.74c-2.37-.6-4.8-1.06-7.2-1.6l-7.21-1.55c-2.41-.51-4.8-1.07-7.25-1.47L0 645v4.33l9.91 1.81c19.09 3.72 37.96 8.27 56.56 13.33z" transform="translate(14 -.46)" fill="url(#l)"/><path d="M62 581.59q27.87 7.65 55.23 16.3c4.55 1.45 9.12 2.86 13.66 4.34l13.59 4.47c9.08 2.94 18 6.08 27.05 9.13 35.94 12.38 71.41 25.5 106.6 39s70.08 27.37 104.76 41.52 69.18 28.55 103.47 43.19S554.79 769 588.6 784.22l.24.11.3-.35-.23-.11q-50.43-23.14-101.65-45.41t-102.93-43.9q-51.84-21.51-104.43-42.09c-35.09-13.67-70.47-27-106.36-39.58-9-3.11-17.93-6.32-27-9.32L133 599c-4.53-1.5-9.1-3-13.65-4.43Q92 585.65 64 577.82L50 574l-3.52-.95-3.56-.87-7.12-1.74-7.11-1.74c-2.37-.59-4.8-1.06-7.2-1.59l-7.21-1.56c-2.41-.5-4.8-1.07-7.25-1.47l-7-1.25v4.35l5.46 1C24.57 572 43.42 576.53 62 581.59z" transform="translate(14 -.46)" fill="url(#m)"/><path d="M59.82 540.65c18.58 5.11 37 10.5 55.23 16.31 4.56 1.44 9.13 2.86 13.67 4.33l13.58 4.47c9.09 2.94 18 6.08 27.06 9.13 35.94 12.39 71.4 25.5 106.59 39s70.05 27.34 104.76 41.5 69.18 28.54 103.47 43.19 68.41 29.5 102.22 44.7l.24.11.31-.34-.24-.11q-50.43-23.16-101.65-45.41t-102.93-43.91q-51.84-21.51-104.42-42.09c-35.1-13.67-70.47-27-106.36-39.57-9-3.12-17.94-6.32-27-9.33l-13.56-4.57c-4.54-1.51-9.11-3-13.66-4.44q-27.3-8.91-55.28-16.74l-14.08-3.78-3.52-.94-3.55-.87-7.12-1.74-7.12-1.74c-2.37-.6-4.8-1.06-7.19-1.6l-7.22-1.55c-2.41-.51-4.79-1.07-7.25-1.48l-4.8-.86v4.36l3.27.59c19.11 3.73 37.95 8.32 56.55 13.38z" transform="translate(14 -.46)" fill="url(#n)"/><path d="M62.75 595.23c18.58 5.11 37 10.5 55.23 16.3 4.55 1.45 9.13 2.87 13.67 4.34l13.58 4.47c9.08 2.94 18 6.08 27.06 9.13 35.94 12.39 71.4 25.5 106.59 39S349 695.81 383.64 710s69.18 28.54 103.47 43.19 68.41 29.5 102.22 44.7l.24.11.31-.34-.24-.11Q539.21 774.36 488 752.11T385.06 708.2q-51.84-21.51-104.43-42.09c-35.09-13.67-70.46-27-106.35-39.57-9-3.12-17.94-6.32-27-9.33l-13.56-4.57c-4.54-1.51-9.11-3-13.66-4.44q-27.3-8.91-55.28-16.74l-14.08-3.78-3.52-.94-3.56-.87-7.11-1.74-7.12-1.74c-2.37-.6-4.8-1.06-7.2-1.6L15 579.24c-2.41-.51-4.79-1.07-7.25-1.48L0 576.38v4.35l6.19 1.12c19.12 3.77 37.96 8.32 56.56 13.38z" transform="translate(14 -.46)" fill="url(#o)"/><path d="M65.74 650.83c18.57 5.11 37 10.5 55.22 16.3 4.56 1.45 9.13 2.86 13.67 4.34l13.59 4.47c9.08 2.94 18 6.08 27.05 9.13 35.94 12.38 71.4 25.5 106.59 39s70.14 27.34 104.77 41.49 69.18 28.55 103.47 43.19 68.4 29.51 102.22 44.71l.24.11.3-.34-.24-.11Q542.19 830 491 807.7t-103-43.9q-51.82-21.51-104.42-42.09c-35.09-13.67-70.47-27-106.36-39.58-9-3.11-17.93-6.32-27-9.32l-13.57-4.57c-4.53-1.51-9.1-3-13.66-4.44q-27.28-8.91-55.28-16.74l-14.07-3.78-3.51-.95-3.56-.87-7.12-1.74-7.08-1.72c-2.36-.59-4.8-1.06-7.19-1.59L18 634.83c-2.41-.5-4.8-1.07-7.25-1.47L0 631.44v4.34l9.18 1.67c19.11 3.76 37.95 8.32 56.56 13.38z" transform="translate(14 -.46)" fill="url(#p)"/><path d="M65 637.18q27.87 7.67 55.23 16.31c4.56 1.44 9.13 2.86 13.67 4.33l13.58 4.47c9.09 2.94 18 6.08 27.06 9.13 35.94 12.39 71.4 25.5 106.59 39s70.08 27.37 104.76 41.52 69.18 28.55 103.48 43.19 68.4 29.5 102.21 44.7l.24.11.31-.34-.24-.11q-50.43-23.16-101.64-45.41t-102.94-43.93q-51.84-21.51-104.42-42.09c-35.09-13.66-70.47-27-106.36-39.57-9-3.12-17.93-6.32-27-9.33L136 654.59c-4.54-1.51-9.11-3-13.66-4.44Q95 641.24 67 633.41l-14-3.78-3.52-.94-3.55-.87-7.12-1.74-7.12-1.74c-2.37-.6-4.8-1.06-7.19-1.6l-7.22-1.55c-2.41-.51-4.79-1.07-7.25-1.47L0 617.93v4.34l8.45 1.54c19.11 3.76 37.95 8.31 56.55 13.37z" transform="translate(14 -.46)" fill="url(#q)"/><path d="M64.22 622.52c18.57 5.11 37 10.5 55.23 16.3 4.55 1.45 9.12 2.87 13.66 4.34l13.59 4.47c9.08 2.94 18 6.08 27.05 9.13 35.94 12.39 71.41 25.5 106.6 39s70.08 27.36 104.76 41.52 69.18 28.54 103.47 43.18S557 810 590.8 825.15l.24.11.3-.34-.24-.11q-50.43-23.16-101.64-45.41t-102.94-43.91Q334.7 714 282.1 693.4c-35.09-13.67-70.47-27-106.36-39.57-9-3.12-17.93-6.32-27-9.33l-13.57-4.57c-4.53-1.51-9.1-3-13.65-4.44q-27.3-8.91-55.29-16.74L52.16 615l-3.51-1-3.56-.87-7.09-1.71-7.12-1.74c-2.36-.6-4.79-1.06-7.19-1.6l-7.21-1.55c-2.41-.51-4.8-1.08-7.25-1.48L0 603.41v4.34l7.66 1.39c19.11 3.77 37.96 8.32 56.56 13.38z" transform="translate(14 -.46)" fill="url(#r)"/><path d="M63.48 608.88q27.87 7.65 55.23 16.3c4.56 1.45 9.13 2.86 13.67 4.34L146 634c9.09 2.94 18 6.08 27.06 9.13 35.94 12.38 71.4 25.5 106.59 39s70.09 27.37 104.77 41.52 69.17 28.55 103.47 43.19 68.4 29.5 102.21 44.71l.25.11.3-.35-.24-.11q-50.47-23.2-101.68-45.45t-102.94-43.91Q334 700.35 281.37 679.76c-35.09-13.67-70.47-27-106.36-39.58-9-3.11-17.93-6.32-27-9.32l-13.56-4.58c-4.54-1.5-9.11-2.95-13.66-4.43q-27.29-8.91-55.29-16.74l-14.07-3.78-3.52-1-3.55-.87-7.12-1.74-7.12-1.72c-2.37-.59-4.8-1.06-7.19-1.59l-7.22-1.56c-2.41-.5-4.79-1.07-7.24-1.47L0 589.89v4.35l6.93 1.26c19.07 3.76 37.95 8.32 56.55 13.38z" transform="translate(14 -.46)" fill="url(#s)"/><path d="M61.29 567.94c18.57 5.11 37 10.5 55.23 16.31 4.55 1.44 9.12 2.86 13.66 4.33l13.59 4.47c9.08 2.94 18 6.08 27 9.13 35.94 12.39 71.41 25.5 106.6 39s70.08 27.36 104.76 41.52 69.18 28.54 103.47 43.19 68.4 29.5 102.22 44.7l.24.11.3-.34-.24-.11q-50.43-23.16-101.64-45.41t-102.89-43.93q-51.82-21.51-104.42-42.09c-35.09-13.67-70.47-27-106.36-39.57-9-3.12-17.93-6.32-27-9.33l-13.57-4.57c-4.53-1.51-9.1-3-13.65-4.44Q91.29 572 63.3 564.17l-14.07-3.78-3.51-.94-3.56-.87-7.16-1.74-7.12-1.74c-2.36-.6-4.79-1.06-7.19-1.6l-7.17-1.5c-2.41-.51-4.8-1.07-7.25-1.48L0 549.35v4.35l4.73.86c19.11 3.77 37.96 8.32 56.56 13.38z" transform="translate(14 -.46)" fill="url(#t)"/><path d="M295.37 940.71c-35.09-13.67-70.46-27-106.36-39.58-9-3.11-17.93-6.32-27-9.32l-13.57-4.58c-4.53-1.5-9.1-3-13.65-4.44q-27.3-8.89-55.28-16.73l-14.07-3.78-3.52-.95-3.56-.87-7.11-1.74-7.12-1.72c-2.37-.59-4.8-1.06-7.2-1.59l-7.21-1.56c-2.41-.51-4.79-1.07-7.25-1.47l-14.63-2.64L0 848.6v4.26l6.53 1 14.4 2.62c19.11 3.76 38 8.32 56.56 13.38s37 10.5 55.23 16.3c4.55 1.45 9.13 2.86 13.66 4.34l13.62 4.44c9.08 2.94 18 6.08 27.05 9.13 35.95 12.38 71.41 25.5 106.6 39s70.08 27.37 104.76 41.52q18.81 7.63 37.59 15.41h4.78q-20.42-8.67-40.93-17.23Q348 961.3 295.37 940.71z" transform="translate(14 -.46)" fill="url(#u)"/><path d="M190.53 929.44c-9-3.12-17.93-6.32-27-9.33L150 915.54c-4.53-1.51-9.1-3-13.65-4.44Q109 902.19 81 894.36l-14-3.78-3.52-.94-3.56-.87-7.16-1.77-7.11-1.74c-2.37-.6-4.8-1.06-7.2-1.6l-7.21-1.55c-2.41-.51-4.8-1.07-7.25-1.47l-14.63-2.59L0 876.68v4.26l8.05 1.2 14.4 2.62c19.11 3.76 38 8.31 56.56 13.37s37 10.5 55.23 16.31c4.55 1.44 9.13 2.86 13.66 4.33l13.59 4.47c9.08 2.94 18 6.08 27 9.13 35.94 12.39 71.41 25.5 106.6 39q36.69 14.05 73 28.67h6.29q-38.54-15.78-77.52-31c-35.06-13.69-70.44-27.04-106.33-39.6z" transform="translate(14 -.46)" fill="url(#v)"/><path d="M294.64 927.06c-35.09-13.67-70.47-27-106.36-39.57-9-3.12-17.93-6.32-27-9.33l-13.57-4.57c-4.53-1.51-9.1-3-13.65-4.44q-27.3-8.91-55.29-16.74l-14.07-3.78-3.51-.94-3.56-.87-7.12-1.74-7.12-1.74c-2.36-.6-4.79-1.06-7.19-1.6l-7.2-1.55c-2.41-.51-4.8-1.08-7.25-1.48L7.11 836.1l-7.11-1v4.27l5.8.86 14.4 2.61c19.11 3.77 38 8.32 56.56 13.38s37 10.5 55.23 16.3c4.55 1.45 9.12 2.87 13.66 4.34l13.59 4.47c9.08 2.94 18 6.08 27 9.13 35.94 12.39 71.41 25.5 106.6 39s70.16 27.3 104.81 41.46q35.27 14.34 70.22 29.1h4q-36.27-15.63-72.84-30.87-51.8-21.51-104.39-42.09z" transform="translate(14 -.46)" fill="url(#w)"/><path d="M296.16 955.37c-35.09-13.67-70.47-27-106.36-39.58-9-3.11-17.93-6.32-27-9.32l-13.57-4.57c-4.53-1.51-9.1-3-13.65-4.44q-27.3-8.91-55.29-16.74l-14.07-3.78-3.51-.94-3.56-.88-7.15-1.74-7.12-1.74c-2.36-.59-4.79-1.06-7.19-1.59l-7.21-1.56c-2.41-.5-4.8-1.07-7.25-1.47l-14.6-2.62L0 863.15v4.26l7.32 1.08 14.4 2.62c19.11 3.76 38 8.32 56.56 13.38s37 10.5 55.23 16.3c4.55 1.45 9.12 2.86 13.66 4.34l13.59 4.47c9.08 2.94 18 6.08 27.05 9.13 35.94 12.38 71.41 25.5 106.6 39s70.08 27.37 104.76 41.52l1.93.8h5.6l-6.12-2.56Q348.76 976 296.16 955.37z" transform="translate(14 -.46)" fill="url(#x)"/><path d="M398.33 955.5q-51.84-21.5-104.42-42.08c-35.09-13.67-70.47-27-106.36-39.58-9-3.11-17.93-6.32-27-9.32L147 859.94c-4.53-1.5-9.1-3-13.66-4.43Q106 846.6 78 838.77L64 835l-3.51-1-3.56-.87-7.12-1.74-7.12-1.74c-2.36-.59-4.8-1.06-7.19-1.59l-7.22-1.56c-2.4-.5-4.79-1.07-7.24-1.47l-14.67-2.58-6.37-.93v4.27l5.06.75 14.41 2.62c19.11 3.76 38 8.32 56.55 13.38s37 10.5 55.23 16.3c4.56 1.45 9.13 2.86 13.67 4.34l13.59 4.47c9.08 2.94 18 6.08 27.05 9.13 35.94 12.38 71.4 25.5 106.59 39s70.09 27.37 104.77 41.52q51.52 21 102.42 42.75h3.31l-1.38-.61q-51.16-22.35-102.94-43.94z" transform="translate(14 -.46)" fill="url(#y)"/><path d="M396.11 914q-51.84-21.48-104.43-42c-35.09-13.67-70.47-27-106.36-39.58-9-3.12-17.93-6.32-27-9.33l-13.57-4.57c-4.53-1.51-9.1-3-13.65-4.44q-27.3-8.91-55.29-16.74l-14.06-3.77-3.52-.95-3.56-.87-7.12-1.75-7.11-1.74c-2.37-.6-4.8-1.06-7.2-1.6L26 785.07c-2.41-.51-4.8-1.07-7.25-1.47L4.15 781 0 780.37v4.28l2.84.42 14.4 2.62c19.11 3.76 38 8.31 56.56 13.37s37 10.51 55.23 16.31c4.55 1.44 9.13 2.86 13.66 4.33l13.59 4.47c9.08 2.94 18 6.08 27.05 9.13 35.94 12.39 71.41 25.5 106.6 39s70.07 27.35 104.76 41.5 69.18 28.55 103.47 43.2q47.25 20.19 94 41h1.23q-46.86-21.4-94.39-42.06-51.11-22.32-102.89-43.94z" transform="translate(14 -.46)" fill="url(#z)"/><path d="M397.57 941.32q-51.84-21.51-104.42-42.08c-35.09-13.67-70.47-27-106.36-39.58-9-3.12-17.93-6.32-27-9.33l-13.56-4.57c-4.54-1.51-9.11-3-13.66-4.44q-27.28-8.91-55.28-16.74l-14.08-3.78-3.52-.94-3.55-.86-7.14-1.75-7.12-1.74c-2.37-.6-4.8-1.06-7.19-1.6l-7.22-1.55c-2.41-.51-4.79-1.07-7.24-1.47l-14.62-2.62-5.61-.82v4.27l4.3.64L18.71 815c19.11 3.76 37.95 8.31 56.55 13.37s37 10.51 55.23 16.31c4.56 1.44 9.13 2.86 13.67 4.33l13.58 4.47c9.09 2.94 18 6.08 27.06 9.13 35.94 12.39 71.4 25.5 106.59 39s70.09 27.37 104.77 41.52 69.17 28.55 103.47 43.19q16 6.83 31.92 13.74h2.57q-16.79-7.42-33.61-14.79-51.16-22.36-102.94-43.95z" transform="translate(14 -.46)" fill="url(#A)"/><path d="M396.84 927.68Q345 906.17 292.41 885.59c-35.09-13.67-70.46-27-106.35-39.57-9-3.12-17.94-6.32-27-9.33l-13.56-4.57c-4.54-1.51-9.11-3-13.66-4.44q-27.3-8.91-55.28-16.74l-14.07-3.78-3.49-.94-3.56-.88-7.11-1.74-7.12-1.74c-2.37-.59-4.8-1.06-7.2-1.59l-7.21-1.56c-2.41-.5-4.79-1.07-7.25-1.47l-14.67-2.62-4.88-.71v4.27l3.57.54L18 801.33c19.12 3.76 38 8.32 56.56 13.38s37 10.5 55.23 16.3c4.55 1.45 9.13 2.87 13.67 4.34l13.54 4.47c9.08 2.94 18 6.08 27.06 9.13 35.94 12.38 71.4 25.5 106.59 39s70.08 27.37 104.76 41.53S464.6 958 498.89 972.63q31.71 13.56 63.2 27.39H564q-32-14.37-64.21-28.44-51.17-22.3-102.95-43.9z" transform="translate(14 -.46)" fill="url(#B)"/><path d="M165.73 961.05l-13.57-4.58c-4.53-1.5-9.1-3-13.65-4.43q-27.3-8.91-55.29-16.74l-14.07-3.78-3.51-.95-3.56-.87L55 928l-7.12-1.74c-2.36-.59-4.79-1.06-7.19-1.59l-7.21-1.56c-2.41-.5-4.8-1.07-7.25-1.47L11.55 919 0 917.3v4.25l10.24 1.52 14.41 2.62c19.11 3.76 38 8.32 56.56 13.38s37 10.5 55.23 16.3c4.55 1.45 9.12 2.86 13.66 4.34l13.59 4.47c9.08 2.94 18 6.08 27.05 9.13q37.39 12.88 74.17 26.71h8.45q-40-15.28-80.63-29.65c-9-3.11-17.93-6.32-27-9.32z" transform="translate(14 -.46)" fill="url(#C)"/><path d="M140.66 992.09q-27.3-8.91-55.29-16.74l-14.07-3.78-3.51-.94-3.56-.87-7.12-1.76-7.11-1.72c-2.36-.6-4.79-1.06-7.19-1.6l-7.21-1.55c-2.41-.51-4.8-1.07-7.25-1.47L13.7 959 0 957v4.25l12.39 1.84 14.41 2.62c19.11 3.76 38 8.31 56.56 13.37s37 10.51 55.23 16.31c4.55 1.44 9.12 2.86 13.66 4.33l.78.26h11.63l-10.35-3.49c-4.53-1.49-9.1-2.92-13.65-4.4z" transform="translate(14 -.46)" fill="url(#D)"/><path d="M72 985.22l-3.52-1-3.48-.82-7.12-1.74-7.11-1.74c-2.37-.59-4.8-1.06-7.2-1.59l-7.21-1.56c-2.41-.5-4.8-1.07-7.25-1.47l-14.63-2.62L0 970.58v4.24l13.13 1.95 14.4 2.62c19.11 3.76 38 8.32 56.56 13.38q12.81 3.53 25.53 7.25h13.72q-18.48-5.73-37.24-11z" transform="translate(14 -.46)" fill="url(#E)"/><path d="M69.25 997.92l-3.56-.87-7.11-1.74-7.12-1.74c-2.37-.6-4.8-1.06-7.2-1.6l-7.21-1.55c-2.41-.51-4.79-1.07-7.25-1.47l-14.63-2.62-14.79-2.16H0v4.24l13.86 2.06 14.4 2.53c10.65 2.09 21.2 4.44 31.69 7h17.11l-4.29-1.16z" transform="translate(14 -.46)" fill="url(#F)"/><path d="M1.07 996.89L0 996.74v3.26h21.28l-5.43-1z" transform="translate(14 -.46)" fill="url(#G)"/><path d="M191.27 943.08c-9-3.11-17.94-6.32-27-9.32l-13.56-4.57c-4.54-1.51-9.11-3-13.66-4.44q-27.3-8.91-55.28-16.74l-14.07-3.78-3.52-1-3.56-.87-7.11-1.74-7.12-1.74c-2.37-.59-4.8-1.06-7.2-1.59L32 895.78c-2.41-.5-4.79-1.07-7.25-1.47l-14.63-2.62L0 890.22v4.26l8.78 1.3 14.41 2.62c19.11 3.76 38 8.32 56.55 13.38s37 10.5 55.23 16.3c4.55 1.45 9.13 2.86 13.67 4.34l13.58 4.47c9.08 2.94 18 6.08 27.06 9.13 35.94 12.38 71.4 25.5 106.59 39q19.38 7.43 38.63 15h6.94q-21.84-8.78-43.82-17.36c-35.09-13.66-70.46-26.98-106.35-39.58z" transform="translate(14 -.46)" fill="url(#H)"/><path d="M16.51 774c19.11 3.76 38 8.32 56.56 13.38s37 10.5 55.23 16.3c4.55 1.45 9.12 2.87 13.66 4.34l13.59 4.47c9.08 2.94 18 6.08 27 9.13 35.94 12.38 71.41 25.5 106.6 39S359.28 888 394 902.16s69.18 28.54 103.47 43.18 68.4 29.51 102.22 44.71l.24.11.3-.34-.24-.11q-50.43-23.16-101.64-45.42t-102.94-43.9Q343.54 878.88 291 858.3c-35.09-13.67-70.47-27-106.36-39.57-9-3.12-17.93-6.32-27-9.33L144 804.83c-4.53-1.51-9.1-3-13.65-4.44q-27.3-8.91-55.29-16.74L61 779.87l-3.51-.94-3.56-.88-7.12-1.74-7.12-1.74c-2.36-.59-4.79-1.06-7.19-1.59l-7.21-1.56c-2.41-.5-4.8-1.07-7.25-1.47l-14.62-2.62-3.42-.49v4.27l2.11.32z" transform="translate(14 -.46)" fill="url(#I)"/><path d="M167.14 987.41l-13.56-4.57c-4.54-1.51-9.11-3-13.66-4.44q-27.3-8.91-55.28-16.74l-14.07-3.78-3.52-.94-3.56-.88-7.11-1.74-7.12-1.74c-2.37-.59-4.8-1.05-7.2-1.59l-7.21-1.55c-2.41-.51-4.79-1.08-7.25-1.48L13 945.35l-13-1.89v4.24l11.66 1.74 14.4 2.61c19.11 3.77 38 8.32 56.56 13.38s37 10.5 55.23 16.3c4.55 1.45 9.13 2.87 13.67 4.34l13.58 4.47c9.08 2.94 18 6.08 27.06 9.13l1 .35h10.26c-3.09-1.1-6.17-2.2-9.27-3.28-9-3.12-17.94-6.32-27.01-9.33z" transform="translate(14 -.46)" fill="url(#J)"/><path d="M166.46 974.69l-13.57-4.57c-4.53-1.51-9.1-3-13.65-4.44q-27.3-8.91-55.29-16.74l-14.06-3.78-3.52-.94-3.56-.87-7.12-1.74-7.11-1.74c-2.37-.6-4.8-1.06-7.2-1.6l-7.21-1.55c-2.41-.51-4.8-1.07-7.25-1.48l-14.63-2.61L0 930.84v4.25l11 1.63 14.4 2.62c19.11 3.76 38 8.31 56.56 13.37s37 10.5 55.23 16.31c4.55 1.44 9.12 2.86 13.66 4.33l13.59 4.47c9.08 2.94 18 6.08 27.05 9.13q18.6 6.4 37 13.07h9.32q-22.06-8.16-44.35-16c-8.99-3.12-17.93-6.32-27-9.33z" transform="translate(14 -.46)" fill="url(#K)"/><path d="M192 956.73c-9-3.12-17.93-6.32-27-9.33l-13.56-4.57c-4.54-1.51-9.11-3-13.66-4.44q-27.29-8.91-55.28-16.74l-14.07-3.78-3.52-.94-3.55-.87-7.12-1.74-7.12-1.74c-2.37-.6-4.8-1.06-7.19-1.6l-7.22-1.55c-2.41-.51-4.79-1.07-7.24-1.48l-14.64-2.61L0 903.76V908l9.51 1.41 14.41 2.62c19.11 3.76 37.95 8.31 56.55 13.37s37 10.5 55.23 16.31c4.56 1.44 9.13 2.86 13.67 4.33l13.63 4.49c9.09 2.94 18 6.08 27.06 9.13 35.94 12.39 71.4 25.5 106.59 39l3.57 1.38h7.62c-3.14-1.24-6.28-2.49-9.43-3.72-35.14-13.69-70.52-27-106.41-39.59z" transform="translate(14 -.46)" fill="url(#L)"/><path d="M91.88 52.55c4.55 1.45 9.12 2.86 13.66 4.33l13.59 4.48c9.08 2.94 18 6.08 27.05 9.13 35.94 12.38 71.41 25.49 106.6 39s70.08 27.34 104.76 41.51 69.18 28.53 103.46 43.17 68.41 29.5 102.22 44.71l.24.11.3-.35-.24-.11q-50.41-23.15-101.64-45.41T359 149.21q-51.84-21.51-104.43-42.08c-35.09-13.67-70.47-27-106.36-39.58-9-3.11-17.93-6.32-27-9.32l-13.61-4.58c-4.53-1.5-9.1-2.95-13.65-4.44q-27.3-8.9-55.29-16.73L24.6 28.7l-3.52-.95-3.56-.87-7.12-1.74-7.11-1.74c-1.09-.27-2.19-.52-3.29-.75v4.44q18.48 4.18 36.65 9.16c18.57 5.1 37.02 10.5 55.23 16.3z" transform="translate(14 -.46)" opacity=".1" fill="url(#M)"/><path d="M91.14 38.9c4.56 1.45 9.13 2.87 13.67 4.34l13.59 4.47c9.08 2.94 18 6.08 27 9.13 35.94 12.39 71.4 25.5 106.6 39s70.08 27.36 104.76 41.52 69.24 28.52 103.52 43.16 68.4 29.48 102.22 44.71l.24.11.3-.34-.24-.11q-50.43-23.16-101.64-45.41t-102.94-43.91Q306.4 114.06 253.8 93.48c-35.09-13.67-70.47-27-106.36-39.57-9-3.12-17.93-6.32-27-9.33L106.87 40c-4.53-1.51-9.1-3-13.66-4.44q-27.28-8.9-55.28-16.73l-14.07-3.78-3.51-.94-3.56-.88-7.12-1.74-7.12-1.74c-.84-.21-1.7-.4-2.55-.59v4.45q18.11 4.11 35.92 9c18.57 5.1 37.02 10.49 55.22 16.29z" transform="translate(14 -.46)" opacity=".07" fill="url(#N)"/><path d="M92.61 66.19c4.55 1.45 9.13 2.87 13.67 4.34L119.86 75c9.08 2.94 18 6.08 27.06 9.13 35.94 12.39 71.4 25.5 106.59 39s70.08 27.36 104.76 41.52 69.18 28.54 103.47 43.18 68.41 29.49 102.26 44.69l.24.11.31-.34-.24-.11Q513.84 229 462.62 206.77t-102.93-43.91q-51.84-21.51-104.43-42.09c-35.09-13.67-70.46-27-106.36-39.57-9-3.12-17.93-6.32-27-9.33l-13.56-4.57c-4.54-1.51-9.11-3-13.66-4.44Q67.38 54 39.4 46.12l-14.07-3.78-3.52-.94-3.56-.88-7.11-1.74L4 37c-1.33-.33-2.67-.62-4-.91v4.44q18.86 4.24 37.38 9.32C56 55 74.4 60.39 92.61 66.19z" transform="translate(14 -.46)" opacity=".15" fill="url(#O)"/><path d="M93.29 79c4.56 1.45 9.13 2.87 13.67 4.34l13.59 4.47c9.08 2.94 18 6.08 27.05 9.13 35.94 12.39 71.41 25.5 106.6 39s70.08 27.3 104.8 41.46 69.18 28.54 103.47 43.18 68.4 29.51 102.22 44.71l.24.11.3-.34-.23-.06q-50.43-23.16-101.64-45.41t-102.99-43.96Q308.54 154.12 256 133.54c-35.09-13.67-70.47-27-106.36-39.57-9-3.12-17.93-6.32-27-9.33L109 80.07c-4.53-1.51-9.1-3-13.66-4.44q-27.26-8.91-55.26-16.74L26 55.11l-3.51-.94-3.56-.88-7.12-1.74-7.11-1.74c-1.55-.38-3.13-.72-4.7-1.05v4.43q19.2 4.31 38.07 9.47C56.64 67.77 75.09 73.16 93.29 79z" transform="translate(14 -.46)" opacity=".2" fill="url(#P)"/><path d="M97 148.21c4.56 1.44 9.13 2.86 13.67 4.33l13.59 4.46c9.09 2.94 18 6.08 27.06 9.13 35.94 12.39 71.4 25.5 106.59 39s70.09 27.35 104.76 41.51 69.18 28.54 103.47 43.19 68.41 29.5 102.22 44.7l.24.11.31-.34-.24-.11Q518.24 311 467 288.78t-102.91-43.91q-51.84-21.51-104.42-42.09c-35.1-13.67-70.47-27-106.36-39.57-9-3.12-17.94-6.32-27-9.33l-13.56-4.57c-4.54-1.51-9.11-3-13.66-4.44Q71.8 136 43.8 128.13l-14.07-3.78-3.52-.94-3.55-.87-7.12-1.74-7.12-1.74c-2.37-.6-4.8-1.06-7.19-1.6L0 117.2v4.4c14.06 3.08 28 6.55 41.78 10.3C60.36 137 78.8 142.4 97 148.21z" transform="translate(14 -.46)" opacity=".45" fill="url(#Q)"/><path d="M58.36 513.36c18.57 5.11 37 10.5 55.23 16.31 4.55 1.44 9.12 2.86 13.66 4.33l13.59 4.47c9.08 2.94 18 6.08 27 9.13 35.94 12.39 71.41 25.5 106.6 39s70.08 27.36 104.76 41.52 69.18 28.54 103.47 43.19 68.41 29.5 102.22 44.7l.24.11.3-.34-.24-.11q-50.41-23.16-101.64-45.41t-102.89-43.93q-51.82-21.51-104.42-42.09c-35.09-13.67-70.47-27-106.36-39.57-9-3.12-17.93-6.32-27-9.33l-13.57-4.57c-4.53-1.51-9.1-3-13.65-4.44q-27.3-8.91-55.29-16.74l-14.07-3.78-3.51-.94-3.56-.87-7.12-1.74-7.11-1.74c-2.36-.6-4.79-1.06-7.19-1.6l-7.21-1.55c-2.41-.51-4.8-1.07-7.25-1.48L0 495.3v4.36l1.8.33c19.11 3.76 37.96 8.31 56.56 13.37z" transform="translate(14 -.46)" fill="url(#R)"/><path d="M96.28 134.56c4.55 1.45 9.13 2.86 13.67 4.34l13.58 4.47c9.08 2.94 18 6.08 27.05 9.13 35.95 12.38 71.41 25.5 106.6 39s70.08 27.34 104.76 41.5 69.18 28.55 103.47 43.19 68.41 29.5 102.22 44.71l.24.11.31-.35-.24-.11q-50.43-23.15-101.65-45.41t-102.93-43.9q-51.84-21.51-104.43-42.09c-35.09-13.67-70.46-27-106.36-39.58-9-3.11-17.93-6.32-27-9.32L112 135.66c-4.53-1.5-9.1-2.95-13.65-4.43q-27.3-8.91-55.28-16.74L29 110.71l-3.52-.95-3.56-.87-7.11-1.74-7.12-1.74c-2.37-.59-4.8-1.06-7.2-1.59l-.49-.11v4.41c13.82 3 27.5 6.45 41.05 10.14q27.87 7.65 55.23 16.3z" transform="translate(14 -.46)" opacity=".4" fill="url(#S)"/><path d="M94 92.61c4.55 1.45 9.12 2.86 13.66 4.33l13.59 4.48c9.08 2.94 18 6.08 27.05 9.13 35.94 12.38 71.41 25.49 106.6 39S325 176.89 359.69 191s69.18 28.55 103.47 43.19 68.41 29.5 102.22 44.71l.24.1.3-.34-.23-.11Q515.26 255.43 464 233.18t-102.89-43.91q-51.84-21.51-104.43-42.08c-35.09-13.67-70.47-27-106.36-39.58-9-3.11-17.93-6.32-27-9.33l-13.57-4.57c-4.53-1.5-9.1-2.95-13.65-4.44q-27.3-8.89-55.29-16.73l-14.06-3.78-3.52-1-3.56-.87-7.12-1.69-7.11-1.74C3.65 63 1.82 62.64 0 62.25v4.42Q19.58 71 38.8 76.31c18.57 5.1 37.02 10.5 55.2 16.3z" transform="translate(14 -.46)" opacity=".25" fill="url(#T)"/><path d="M94.76 106.25c4.55 1.45 9.13 2.87 13.67 4.34l13.57 4.47c9.08 2.94 18 6.08 27.06 9.13 35.94 12.39 71.4 25.5 106.59 39s70.08 27.36 104.76 41.52 69.18 28.54 103.47 43.18 68.41 29.51 102.22 44.71l.24.11.31-.34-.24-.11Q516 269.08 464.77 246.83t-102.93-43.91Q310 181.41 257.41 160.83c-35.09-13.67-70.46-27-106.36-39.57-9-3.12-17.93-6.32-27-9.33l-13.56-4.57c-4.54-1.51-9.11-3-13.66-4.44Q69.53 94 41.55 86.18L27.48 82.4 24 81.46l-3.56-.88-7.11-1.74-7.16-1.74c-2-.5-4.11-.92-6.17-1.37v4.42Q20 84.59 39.53 90c18.58 5.06 37.02 10.45 55.23 16.25z" transform="translate(14 -.46)" opacity=".3" fill="url(#U)"/><path d="M97.74 161.85c4.56 1.45 9.13 2.86 13.67 4.34l13.59 4.47c9.09 2.94 18 6.08 27.06 9.13 35.94 12.38 71.4 25.5 106.59 39s70.09 27.37 104.77 41.52 69.17 28.55 103.47 43.19 68.4 29.5 102.22 44.71l.24.11.3-.35-.24-.11Q519 324.68 467.76 302.42t-102.94-43.91Q313 237 260.4 216.43c-35.09-13.67-70.47-27-106.36-39.58-9-3.11-17.93-6.32-27-9.32L113.47 163c-4.53-1.5-9.11-2.95-13.66-4.43q-27.28-8.91-55.28-16.74L30.46 138l-3.52-.95-3.55-.87-7.12-1.74-7.12-1.74c-2.36-.59-4.8-1.06-7.19-1.59l-2-.43v4.4c14.31 3.12 28.48 6.65 42.51 10.47q27.91 7.65 55.27 16.3z" transform="translate(14 -.46)" opacity=".5" fill="url(#V)"/><path d="M95.55 120.92c4.55 1.44 9.12 2.86 13.66 4.33l13.59 4.47c9.08 2.94 18 6.08 27.05 9.13 35.94 12.39 71.41 25.5 106.6 39s70.08 27.36 104.76 41.52 69.18 28.54 103.47 43.19 68.41 29.5 102.22 44.7l.24.11.3-.34-.24-.11q-50.41-23.16-101.64-45.41t-102.93-43.93q-51.84-21.51-104.43-42.09c-35.09-13.67-70.47-27-106.36-39.57-9-3.12-17.93-6.32-27-9.33L111.27 122c-4.53-1.51-9.1-3-13.65-4.44q-27.3-8.91-55.29-16.74l-14.07-3.76-3.51-.94-3.56-.87-7.12-1.74L7 91.77c-2.28-.58-4.63-1-6.95-1.55v4.42q20.36 4.5 40.32 10c18.52 5.08 36.97 10.47 55.18 16.28z" transform="translate(14 -.46)" opacity=".35" fill="url(#W)"/><path d="M98.48 175.49c4.55 1.45 9.12 2.87 13.66 4.34l13.59 4.47c9.08 2.94 18 6.08 27.05 9.13 35.94 12.39 71.41 25.5 106.6 39s70.08 27.36 104.76 41.52 69.18 28.54 103.47 43.19 68.4 29.5 102.22 44.7l.24.11.3-.34-.24-.11q-50.43-23.16-101.64-45.41t-102.94-43.93q-51.82-21.51-104.42-42.09c-35.09-13.67-70.47-27-106.36-39.57-9-3.12-17.93-6.32-27-9.33l-13.57-4.57c-4.53-1.51-9.1-3-13.65-4.44q-27.3-8.91-55.29-16.74l-14.07-3.78-3.51-.94-3.56-.87-7.12-1.74-7.12-1.74c-2.36-.6-4.79-1.06-7.19-1.6L0 144.17v4.4c14.56 3.16 29 6.74 43.25 10.62 18.57 5.11 37.02 10.5 55.23 16.3z" transform="translate(14 -.46)" opacity=".55" fill="url(#X)"/><path d="M107 406.86c4.55 1.45 9.12 2.87 13.66 4.34l13.59 4.47c9.08 2.94 18 6.08 27.05 9.13 35.94 12.38 71.41 25.5 106.6 39s70.1 27.34 104.76 41.5 69.18 28.54 103.47 43.18 68.4 29.51 102.22 44.71l.24.11.3-.34-.24-.11Q528.22 569.69 477 547.43t-102.94-43.9Q322.25 482 269.65 461.44c-35.09-13.67-70.47-27-106.36-39.57-9-3.12-17.93-6.32-27-9.33L122.72 408c-4.53-1.51-9.1-3-13.65-4.44q-27.3-8.91-55.29-16.74L39.71 383l-3.51-.94-3.56-.88-7.12-1.74-7.12-1.74c-2.36-.59-4.79-1.06-7.19-1.59L4 374.56l-4-.85v4.44c17.47 3.57 34.72 7.77 51.77 12.41 18.57 5.11 37.02 10.5 55.23 16.3z" transform="translate(14 -.46)" fill="url(#Y)"/><path d="M108 353.55c4.56 1.45 9.13 2.87 13.67 4.34l13.58 4.47c9.09 2.94 18 6.08 27.06 9.13 35.94 12.39 71.4 25.5 106.59 39S339 437.83 373.7 452s69.17 28.54 103.47 43.18 68.4 29.51 102.21 44.71l.25.11.3-.34-.24-.11q-50.43-23.16-101.64-45.41t-102.94-43.92q-51.84-21.51-104.42-42.09c-35.09-13.67-70.47-27-106.36-39.57-9-3.12-17.93-6.32-27-9.33l-13.56-4.57c-4.54-1.51-9.11-3-13.66-4.44q-27.28-8.91-55.28-16.74l-14.08-3.78-3.52-.94-3.55-.88-7.12-1.74-7.12-1.74c-2.36-.59-4.8-1-7.19-1.59L5 321.26c-1.68-.36-3.35-.74-5-1.07v4.44c17.82 3.61 35.42 7.89 52.8 12.62 18.58 5.11 37.02 10.5 55.2 16.3z" transform="translate(14 -.46)" fill="url(#Z)"/><path d="M106.26 393.22c4.56 1.44 9.13 2.86 13.67 4.33l13.58 4.45c9.09 2.94 18 6.08 27.06 9.13 35.94 12.39 71.4 25.5 106.59 39s70.08 27.37 104.77 41.52 69.17 28.55 103.47 43.19 68.4 29.5 102.21 44.71l.25.1.3-.34-.24-.11q-50.43-23.2-101.64-45.41t-102.94-43.91q-51.84-21.51-104.42-42.08c-35.09-13.67-70.47-27-106.36-39.58-9-3.12-17.93-6.32-27-9.33L122 394.32c-4.54-1.5-9.11-3-13.66-4.44Q81 381 53.05 373.14L39 369.37l-3.52-.95-3.55-.87-7.12-1.74-7.12-1.74c-2.37-.6-4.8-1.06-7.19-1.6l-7.22-1.55-3.28-.7v4.43c17.22 3.54 34.23 7.69 51 12.26q27.9 7.66 55.26 16.31z" transform="translate(14 -.46)" fill="url(#aa)"/><path d="M109.45 379.92c4.55 1.44 9.12 2.86 13.66 4.33l13.59 4.48c9.08 2.94 18 6.08 27.05 9.13 35.94 12.38 71.41 25.49 106.6 39s70.08 27.37 104.76 41.52 69.18 28.55 103.47 43.19S547 551 580.8 566.25l.24.1.3-.34-.23-.11q-50.43-23.16-101.65-45.41t-102.93-43.91q-51.84-21.51-104.43-42.08c-35.09-13.67-70.47-27-106.36-39.58-9-3.11-17.93-6.32-27-9.33L125.17 381c-4.53-1.5-9.1-3-13.65-4.44q-27.3-8.91-55.29-16.74l-14.06-3.77-3.52-.95-3.56-.87-7.09-1.72-7.11-1.74c-2.37-.59-4.8-1.06-7.2-1.59l-7.21-1.56c-2.15-.45-4.28-.94-6.45-1.33v4.42c18.31 3.67 36.38 8.05 54.22 12.9 18.54 5.11 36.99 10.51 55.2 16.31z" transform="translate(14 -.46)" fill="url(#ab)"/><path d="M108.77 367.2c4.55 1.45 9.12 2.86 13.66 4.33L136 376c9.08 2.94 18 6.08 27 9.13 35.94 12.38 71.41 25.49 106.6 39s70.08 27.37 104.76 41.52 69.18 28.55 103.47 43.19 68.4 29.5 102.22 44.71l.24.11.3-.35-.24-.11Q530 530 478.78 507.77t-102.94-43.91Q324 442.35 271.42 421.78c-35.09-13.67-70.47-27-106.36-39.58-9-3.11-17.93-6.32-27-9.32l-13.57-4.58c-4.53-1.5-9.1-2.95-13.65-4.44q-27.3-8.86-55.29-16.73l-14.07-3.78-3.51-1-3.56-.87-7.12-1.74-7.12-1.74c-2.36-.59-4.79-1.06-7.19-1.59l-7.21-1.51c-1.93-.4-3.83-.84-5.77-1.21v4.44c18.07 3.64 35.92 8 53.54 12.77 18.57 5.1 37.02 10.5 55.23 16.3z" transform="translate(14 -.46)" fill="url(#ac)"/><path d="M107.73 420.51c4.55 1.44 9.12 2.86 13.66 4.33l13.61 4.47c9.08 2.94 18 6.08 27.05 9.13 35.94 12.39 71.41 25.5 106.6 39s70.08 27.37 104.76 41.52 69.18 28.55 103.47 43.19 68.41 29.5 102.22 44.7l.24.11.3-.34-.23-.11Q529 583.33 477.74 561.08t-102.93-43.91Q323 495.66 270.38 475.09c-35.09-13.67-70.47-27-106.36-39.58-9-3.12-17.93-6.32-27-9.33l-13.57-4.57c-4.53-1.51-9.1-3-13.65-4.44q-27.3-8.91-55.29-16.74l-14.06-3.77-3.52-1-3.56-.87-7.12-1.74-7.11-1.74c-2.37-.6-4.8-1.06-7.2-1.6l-7.21-1.55c-1.58-.33-3.15-.69-4.73-1v4.45c17.72 3.6 35.22 7.85 52.5 12.55 18.57 5.15 37.02 10.55 55.23 16.35z" transform="translate(14 -.46)" fill="url(#ad)"/><path d="M56.89 486.07c18.58 5.11 37 10.5 55.23 16.31 4.56 1.44 9.13 2.86 13.67 4.33l13.58 4.47c9.09 2.94 18 6.08 27.06 9.13 35.94 12.39 71.4 25.5 106.59 39s70.08 27.36 104.76 41.52S447 629.36 481.25 644s68.41 29.5 102.22 44.7l.24.11.31-.34-.24-.11Q533.35 665.2 482.13 643T379.2 599q-51.84-21.47-104.42-42c-35.1-13.67-70.47-27-106.36-39.57-9-3.12-17.94-6.32-27-9.33l-13.56-4.57c-4.54-1.51-9.11-3-13.66-4.44q-27.28-8.91-55.28-16.74l-14.07-3.78-3.52-.94-3.55-.87-7.13-1.76-7.12-1.74c-2.37-.6-4.8-1.06-7.19-1.6l-7.22-1.55c-2.41-.51-4.79-1.07-7.25-1.48L0 468.27v4.36l.34.07c19.11 3.76 37.95 8.3 56.55 13.37z" transform="translate(14 -.46)" fill="url(#ae)"/><path d="M57.62 499.72q27.87 7.65 55.23 16.3c4.56 1.45 9.13 2.86 13.67 4.34l13.59 4.47c9.08 2.94 18 6.08 27 9.13 35.94 12.38 71.4 25.5 106.59 39s70.09 27.37 104.77 41.52S447.69 643 482 657.64s68.4 29.5 102.22 44.71l.24.11.3-.35-.24-.1q-50.43-23.16-101.64-45.42t-102.94-43.9q-51.84-21.51-104.42-42.09c-35.09-13.67-70.47-27-106.36-39.58-9-3.11-17.93-6.32-27-9.32l-13.57-4.58c-4.53-1.5-9.11-3-13.66-4.43Q87.64 503.78 59.64 496l-14.07-3.78-3.52-.95-3.55-.87-7.12-1.74-7.12-1.74c-2.36-.59-4.8-1.06-7.19-1.59l-7.22-1.56c-2.4-.5-4.79-1.07-7.24-1.47L0 481.78v4.37l1.07.19c19.11 3.76 37.93 8.32 56.55 13.38z" transform="translate(14 -.46)" fill="url(#af)"/><path d="M111.39 488.73c4.55 1.45 9.13 2.86 13.67 4.34l13.58 4.47c9.08 2.94 18 6.08 27.06 9.13 35.94 12.38 71.4 25.5 106.59 39s70.08 27.33 104.76 41.49 69.18 28.55 103.47 43.19 68.41 29.5 102.22 44.71l.24.11.31-.34-.24-.11q-50.43-23.16-101.65-45.42t-102.93-43.9Q326.63 563.89 274 543.31c-35.09-13.67-70.46-27-106.36-39.58-9-3.11-17.93-6.32-27-9.32l-13.56-4.57c-4.54-1.51-9.11-3-13.66-4.44q-27.3-8.91-55.28-16.74l-14.07-3.78-3.52-.95-3.55-.87-7.11-1.74-7.12-1.74c-2.37-.59-4.8-1.06-7.2-1.59l-7.21-1.56c-2.36-.5-4.76-1.07-7.22-1.43L0 454.76v4.37c19 3.75 37.69 8.27 56.16 13.3s37.02 10.5 55.23 16.3z" transform="translate(14 -.46)" fill="url(#ag)"/><path d="M109.19 447.8c4.56 1.44 9.13 2.86 13.67 4.33l13.58 4.47c9.09 2.94 18 6.08 27.06 9.13 35.94 12.39 71.4 25.5 106.59 39s70.08 27.37 104.76 41.52 69.15 28.53 103.48 43.17 68.4 29.5 102.21 44.7l.24.11.31-.34-.24-.11q-50.43-23.16-101.64-45.41t-102.94-43.91Q324.43 523 271.85 502.37c-35.09-13.66-70.47-27-106.36-39.57-9-3.12-17.93-6.32-27-9.33l-13.56-4.57c-4.54-1.51-9.11-3-13.66-4.44Q84 435.55 56 427.72l-14.07-3.78-3.54-.94-3.55-.87-7.12-1.74-7.12-1.74c-2.37-.6-4.8-1.06-7.19-1.6l-7.22-1.55c-2.06-.44-4.11-.91-6.19-1.29v4.43c18.22 3.66 36.2 8 54 12.85q27.83 7.67 55.19 16.31z" transform="translate(14 -.46)" fill="url(#ah)"/><path d="M110.66 475.09c4.55 1.44 9.12 2.86 13.66 4.33l13.59 4.47C147 486.83 156 490 165 493c35.94 12.39 71.41 25.5 106.6 39s70.08 27.37 104.76 41.52 69.18 28.55 103.47 43.19 68.41 29.5 102.22 44.7l.24.11.3-.34-.24-.11q-50.41-23.16-101.64-45.41t-102.97-43.91q-51.84-21.51-104.43-42.09c-35.09-13.67-70.47-27-106.36-39.57-9-3.12-17.93-6.32-27-9.33l-13.57-4.57c-4.53-1.51-9.1-3-13.65-4.44q-27.3-8.91-55.29-16.75l-14.06-3.78-3.52-.94-3.56-.87-7.12-1.74-7.11-1.74c-2.37-.6-4.8-1.06-7.2-1.6l-7.21-1.55c-2.41-.51-4.8-1.07-7.25-1.47l-.41-.07v4.39c18.72 3.72 37.19 8.19 55.43 13.15 18.57 5.11 37.02 10.5 55.23 16.31z" transform="translate(14 -.46)" fill="url(#ai)"/><path d="M109.92 461.44c4.56 1.45 9.13 2.86 13.67 4.34l13.59 4.47c9.08 2.94 18 6.08 27 9.13 35.94 12.38 71.4 25.5 106.59 39s70.09 27.37 104.77 41.52 69.18 28.55 103.47 43.19 68.4 29.51 102.22 44.71l.24.11.3-.34-.24-.11Q531.15 624.27 479.94 602T377 558.11Q325.17 536.6 272.58 516c-35.09-13.67-70.47-27-106.36-39.58-9-3.11-17.93-6.32-27-9.32l-13.57-4.57c-4.53-1.51-9.1-3-13.66-4.44q-27.28-8.91-55.28-16.74l-14.07-3.78-3.51-.95-3.56-.87-7.12-1.75-7.12-1.74c-2.36-.59-4.8-1.06-7.19-1.59l-7.21-1.56c-2.31-.48-4.59-1-6.93-1.41v4.41c18.47 3.69 36.7 8.1 54.7 13 18.57 5.14 37.02 10.53 55.22 16.33z" transform="translate(14 -.46)" fill="url(#aj)"/><path d="M108.46 434.15c4.55 1.45 9.13 2.87 13.67 4.34l13.58 4.51c9.08 2.94 18 6.08 27.06 9.13 35.94 12.38 71.4 25.5 106.59 39s70.08 27.37 104.76 41.53 69.18 28.54 103.47 43.18 68.41 29.44 102.22 44.64l.24.11.31-.34-.24-.11Q529.69 597 478.47 574.72t-102.93-43.9q-51.84-21.51-104.43-42.09c-35.09-13.67-70.46-27-106.36-39.58-9-3.11-17.93-6.31-27-9.32l-13.56-4.57c-4.54-1.51-9.11-3-13.66-4.44q-27.3-8.91-55.28-16.74l-14.07-3.78-3.52-.94-3.56-.88-7.1-1.74-7.13-1.74c-2.37-.59-4.8-1.06-7.2-1.59l-7.21-1.56c-1.82-.38-3.63-.8-5.46-1.15v4.44c18 3.63 35.71 7.94 53.23 12.71 18.58 5.15 37.02 10.5 55.23 16.3z" transform="translate(14 -.46)" fill="url(#ak)"/><path d="M100.7 217c4.56 1.44 9.13 2.86 13.67 4.33l13.63 4.45c9.09 2.94 18 6.08 27.06 9.13 35.94 12.38 71.4 25.49 106.59 39s70.08 27.37 104.76 41.52 69.13 28.57 103.43 43.16 68.4 29.5 102.21 44.71l.24.1.31-.34-.24-.11q-50.43-23.16-101.64-45.41t-102.94-43.91q-51.84-21.51-104.42-42.08c-35.09-13.67-70.47-27-106.36-39.58-9-3.11-17.93-6.32-27-9.33l-13.56-4.57c-4.54-1.5-9.11-3-13.66-4.44q-27.28-8.91-55.28-16.74l-14.07-3.77-3.52-1-3.55-.87-7.12-1.74-7.12-1.74c-2.37-.59-4.8-1.06-7.19-1.59L0 185.16v4.41c15.32 3.27 30.48 7 45.47 11.09q27.87 7.67 55.23 16.34z" transform="translate(14 -.46)" opacity=".7" fill="url(#al)"/><path d="M101.43 230.61c4.56 1.45 9.13 2.87 13.67 4.34l13.59 4.47c9.08 2.94 18 6.08 27.05 9.13 35.94 12.39 71.4 25.5 106.59 39s70.09 27.37 104.77 41.53 69.18 28.54 103.47 43.18 68.4 29.51 102.22 44.71l.24.11.3-.34-.24-.11q-50.43-23.16-101.64-45.42t-102.94-43.9q-51.83-21.51-104.42-42.09c-35.09-13.67-70.47-27-106.36-39.57-9-3.12-17.93-6.32-27-9.33l-13.57-4.57c-4.53-1.51-9.1-3-13.66-4.44q-27.28-8.91-55.28-16.74l-14.07-3.78-3.51-.94-3.56-.88L20 203.2l-7.12-1.74c-2.36-.59-4.8-1.05-7.19-1.59L0 198.65v4.41c15.57 3.31 31 7.11 46.21 11.25 18.57 5.11 37.02 10.5 55.22 16.3z" transform="translate(14 -.46)" opacity=".8" fill="url(#am)"/><path d="M103 258.92c4.56 1.45 9.13 2.86 13.67 4.33l13.58 4.48c9.09 2.94 18 6.08 27.06 9.13 35.94 12.38 71.4 25.49 106.59 39s70.09 27.37 104.77 41.52 69.17 28.55 103.47 43.19 68.4 29.5 102.22 44.71l.24.11.3-.35-.24-.11Q524.18 421.76 473 399.49t-103-43.91q-51.84-21.51-104.42-42.08c-35.09-13.67-70.47-27-106.36-39.58-9-3.11-17.93-6.32-27-9.32l-13.54-4.6c-4.53-1.5-9.11-2.95-13.66-4.44q-27.28-8.9-55.28-16.73l-14.07-3.78-3.52-.95-3.55-.87-7.12-1.74-7.12-1.74c-2.36-.59-4.8-1.06-7.19-1.59L0 226.63V231c16.09 3.39 32 7.3 47.72 11.58q27.87 7.69 55.28 16.34z" transform="translate(14 -.46)" fill="url(#an)"/><path d="M102.22 245.27c4.56 1.45 9.13 2.87 13.67 4.34l13.58 4.47c9.09 2.94 18 6.08 27.06 9.13 35.94 12.39 71.4 25.5 106.59 39s70.08 27.36 104.76 41.52 69.18 28.54 103.47 43.18 68.41 29.51 102.22 44.71l.24.11.31-.34-.24-.11q-50.43-23.16-101.65-45.41T369.3 341.94q-51.84-21.51-104.42-42.09c-35.1-13.67-70.47-27-106.36-39.57-9-3.12-17.94-6.32-27-9.33L118 246.38c-4.54-1.51-9.11-3-13.66-4.44Q77 233 49 225.2l-14.07-3.78-3.52-.94-3.55-.87-7.12-1.75-7.12-1.73c-2.37-.6-4.8-1.06-7.19-1.6L0 213.14v4.41c15.84 3.35 31.5 7.21 47 11.42 18.57 5.11 37 10.5 55.22 16.3z" transform="translate(14 -.46)" opacity=".9" fill="url(#ao)"/><path d="M107.3 339.91c4.55 1.45 9.13 2.86 13.67 4.34l13.58 4.47c9.08 2.94 18 6.08 27.06 9.13 35.94 12.38 71.4 25.5 106.59 39s70.08 27.34 104.8 41.49 69.18 28.55 103.47 43.19 68.41 29.5 102.22 44.71l.24.11.31-.35-.24-.11q-50.43-23.14-101.65-45.41t-102.97-43.91Q322.54 415.08 270 394.49c-35.09-13.67-70.46-27-106.35-39.58-9-3.11-17.94-6.32-27-9.32L123 341c-4.54-1.5-9.11-2.95-13.66-4.44q-27.3-8.9-55.28-16.73L40 316.06l-3.52-.95-3.56-.87-7.11-1.74-7.12-1.74c-2.37-.59-4.8-1.06-7.2-1.59l-7.19-1.56-4.3-.92v4.45c17.57 3.58 34.93 7.8 52.07 12.47q27.87 7.65 55.23 16.3z" transform="translate(14 -.46)" fill="url(#ap)"/><path d="M100 203.32c4.55 1.45 9.13 2.87 13.67 4.34l13.58 4.47c9.08 2.94 18 6.08 27.06 9.13 35.94 12.39 71.4 25.5 106.59 39s70.1 27.34 104.73 41.5 69.18 28.54 103.47 43.18 68.41 29.51 102.22 44.71l.24.11.31-.34-.24-.11Q521.2 366.15 470 343.9T367.05 300q-51.84-21.51-104.43-42.09c-35.09-13.67-70.46-27-106.36-39.57-9-3.12-17.93-6.32-27-9.33l-13.56-4.57c-4.54-1.51-9.11-3-13.66-4.44q-27.3-8.91-55.28-16.74l-14.07-3.78-3.52-.94-3.56-.88-7.11-1.74-7.12-1.74c-2.37-.59-4.8-1-7.2-1.59L0 171.68v4.4C15.07 179.32 30 183 44.74 187c18.58 5.13 37.02 10.52 55.26 16.32z" transform="translate(14 -.46)" opacity=".65" fill="url(#aq)"/><path d="M99.21 189.14c4.55 1.45 9.13 2.86 13.66 4.34l13.59 4.52c9.08 2.94 18 6.08 27.05 9.13 36 12.38 71.41 25.5 106.6 39s70.08 27.37 104.76 41.52 69.18 28.55 103.47 43.19 68.41 29.5 102.22 44.71l.24.11.31-.35-.24-.11q-50.43-23.2-101.65-45.49T366.29 285.8q-51.84-21.49-104.43-42.08c-35.09-13.67-70.46-27-106.36-39.58-9-3.11-17.93-6.32-27-9.32l-13.57-4.58c-4.53-1.5-9.1-3-13.65-4.43Q74 176.9 46 169.07l-14.06-3.78-3.52-.95-3.56-.87-7.12-1.74-7.12-1.73c-2.37-.59-4.8-1.06-7.2-1.59L0 157.66v4.4c14.81 3.2 29.47 6.83 44 10.78q27.85 7.65 55.21 16.3z" transform="translate(14 -.46)" opacity=".6" fill="url(#ar)"/><path d="M106.57 326.22c4.55 1.44 9.12 2.86 13.66 4.33l13.59 4.45c9.08 2.94 18 6.08 27.05 9.14 35.94 12.38 71.41 25.49 106.6 39s70.08 27.37 104.76 41.52 69.18 28.55 103.47 43.19 68.4 29.5 102.22 44.71l.24.1.3-.34-.24-.11Q527.79 489 476.58 466.79t-102.94-43.91q-51.83-21.51-104.42-42.08c-35.09-13.67-70.47-27-106.36-39.58-9-3.11-17.93-6.32-27-9.33l-13.57-4.57c-4.53-1.5-9.1-3-13.65-4.44q-27.3-8.88-55.29-16.74l-14.07-3.77-3.51-.95-3.56-.87-7.12-1.74-7.09-1.74c-2.36-.6-4.79-1.06-7.19-1.6l-7.21-1.55-3.6-.77v4.44c17.32 3.55 34.43 7.73 51.34 12.32 18.57 5.09 37.02 10.51 55.23 16.31z" transform="translate(14 -.46)" fill="url(#as)"/><path d="M105.88 313.5c4.56 1.45 9.13 2.86 13.67 4.33l13.58 4.48c9.09 2.94 18 6.08 27.06 9.13 35.94 12.38 71.4 25.49 106.59 39s70.09 27.37 104.77 41.52 69.17 28.52 103.45 43.16 68.4 29.5 102.21 44.71l.25.1.3-.34-.24-.11q-50.43-23.14-101.64-45.41T373 410.16q-51.84-21.51-104.42-42.08c-35.09-13.67-70.47-27-106.36-39.58-9-3.11-17.93-6.32-27-9.33l-13.56-4.57c-4.54-1.5-9.11-3-13.66-4.44q-27.28-8.9-55.28-16.73l-14.12-3.78-3.52-.95-3.55-.87-7.12-1.74-7.12-1.74c-2.36-.59-4.8-1.06-7.19-1.59l-7.22-1.56-2.88-.62V285c17.09 3.52 34 7.65 50.65 12.19q27.87 7.66 55.23 16.31z" transform="translate(14 -.46)" fill="url(#at)"/><path d="M105.15 299.85c4.55 1.45 9.13 2.87 13.67 4.34l13.58 4.47c9.08 2.94 18 6.08 27.06 9.13 35.94 12.39 71.4 25.5 106.59 39s70.08 27.36 104.76 41.52 69.19 28.52 103.47 43.16S542.69 471 576.5 486.18l.24.11.31-.34-.24-.11q-50.43-23.16-101.65-45.41t-102.93-43.91Q320.39 375 267.8 354.43c-35.09-13.67-70.46-27-106.35-39.57-9-3.12-17.94-6.32-27-9.33L120.88 301c-4.54-1.51-9.11-3-13.66-4.44q-27.3-8.91-55.28-16.74L37.87 276l-3.52-.94-3.56-.88-7.11-1.74-7.12-1.74c-2.37-.59-4.8-1.05-7.19-1.59l-7.22-1.55-2.15-.47v4.43c16.84 3.48 33.48 7.56 49.92 12 18.58 5.14 37.02 10.53 55.23 16.33z" transform="translate(14 -.46)" fill="url(#au)"/><path d="M104.42 286.21c4.55 1.45 9.13 2.86 13.66 4.33l13.59 4.46c9.08 2.94 18 6.08 27.05 9.13 35.95 12.38 71.41 25.49 106.6 39s70.08 27.37 104.76 41.52 69.18 28.55 103.47 43.19 68.41 29.5 102.22 44.71l.24.11.31-.35-.24-.11q-50.43-23.2-101.65-45.42T371.5 382.87q-51.84-21.51-104.43-42.08c-35.09-13.67-70.46-27-106.36-39.58-9-3.11-17.93-6.32-27-9.32l-13.57-4.58c-4.53-1.5-9.1-2.95-13.65-4.44Q79.19 274 51.2 266.14l-14.06-3.78-3.52-.95-3.56-.87-7.12-1.74-7.11-1.74c-2.37-.59-4.8-1.06-7.2-1.59l-7.21-1.56-1.42-.3V258c16.59 3.45 33 7.48 49.19 11.89q27.87 7.67 55.23 16.32z" transform="translate(14 -.46)" fill="url(#av)"/><path d="M103.69 272.56c4.55 1.45 9.12 2.87 13.66 4.34l13.59 4.47c9.08 2.94 18 6.08 27.05 9.13 35.94 12.39 71.41 25.5 106.6 39s70.08 27.34 104.76 41.5 69.18 28.54 103.47 43.18 68.4 29.51 102.22 44.71l.24.11.3-.34-.24-.11q-50.43-23.16-101.64-45.41t-102.94-43.91q-51.83-21.51-104.42-42.09c-35.09-13.67-70.47-27-106.36-39.57-9-3.12-17.93-6.32-27-9.33l-13.57-4.57c-4.53-1.51-9.1-3-13.65-4.44q-27.3-8.91-55.29-16.74l-14.07-3.78-3.51-.94-3.56-.88-7.12-1.74-7.12-1.74c-2.36-.59-4.79-1-7.19-1.59l-7.21-1.55-.69-.15v4.41c16.34 3.42 32.49 7.39 48.46 11.73 18.54 5.11 37.02 10.5 55.23 16.3z" transform="translate(14 -.46)" fill="url(#aw)"/></g><path d="M0 0v999.54h14v-335c1.93.77 5.75 3.05 8.35 12.14h.06c1.19-.37 7-2.34 12 .78v322h9.37V679.31c1.92.77 5.74 3.05 8.34 12.14a.06.06 0 00.07 0c1.18-.37 7-2.34 12 .79v307.3h9.37V694.02c1.92.77 5.75 3 8.34 12.14a.06.06 0 00.07 0c1.18-.37 7-2.34 12 .79v292.59h9.36V708.73c1.93.77 5.75 3 8.35 12.14h.06c1.19-.37 7-2.34 12 .78v277.89h9.37v-276.1c1.92.77 5.74 3.05 8.34 12.14 0 0 0 .06.07.05 1.18-.37 7-2.34 12 .78v263.13H163V738.15c1.92.78 5.75 3 8.34 12.15a.06.06 0 00.07 0c1.18-.37 7-2.34 12 .78v248.46h9.36V752.86c1.92.78 5.75 3.06 8.34 12.15a.06.06 0 00.07 0c1.19-.37 7-2.34 12 .78v233.75h9.37v-232c1.92.77 5.74 3.05 8.34 12.14a.06.06 0 00.07 0c1.18-.37 7-2.34 12 .78v219h9.37V782.29c1.92.77 5.75 3 8.34 12.14a.06.06 0 00.07 0c1.18-.37 7-2.34 12 .79v204.32h9.36V797c1.92.77 5.75 3 8.34 12.14a.06.06 0 00.07 0c1.19-.37 7-2.34 12 .79v189.61H312V811.71c1.92.77 5.74 3.05 8.34 12.14 0 0 0 .06.07.05 1.18-.37 7-2.34 12 .78v174.86h9.37V826.42c1.92.78 5.75 3 8.34 12.14 0 0 0 .06.07.05 1.18-.37 7-2.34 12 .78v160.15h9.36V841.13c1.92.78 5.75 3 8.34 12.15a.06.06 0 00.07 0c1.19-.37 7-2.34 12 .78v145.48h9.36V855.85c1.93.77 5.75 3.05 8.35 12.14a.06.06 0 00.07 0c1.18-.37 7-2.34 12 .78v130.77h9.37v-129c1.92.77 5.75 3.05 8.34 12.14a.06.06 0 00.07 0c1.18-.37 7-2.34 12 .79v116h9.36v-114.2c1.92.77 5.75 3 8.34 12.14a.06.06 0 00.07 0c1.19-.37 7-2.34 12 .79v101.34h9.36v-99.56c1.93.77 5.75 3 8.35 12.14a.06.06 0 00.07 0c1.18-.37 7-2.34 12 .78v86.64h9.37v-84.85c1.92.77 5.74 3.05 8.34 12.14 0 0 0 .06.07.05 1.18-.37 7-2.34 12 .78v71.88h9.37V929.4c1.92.78 5.75 3 8.34 12.15a.06.06 0 00.07 0c1.18-.37 7-2.34 12 .78v57.21h9.36v-55.43c1.93.78 5.75 3.06 8.35 12.15a.06.06 0 00.07 0c1.18-.37 7-2.34 12 .78v42.5h9.37v-40.71c1.92.77 5.74 3.05 8.34 12.14a.06.06 0 00.07 0c1.18-.37 7-2.34 12 .78v27.79h9.37v-26c1.92.77 5.75 3 8.34 12.14a.06.06 0 00.07 0c1.18-.37 7-2.34 12 .79v13h9.36v-11.22c1.86.75 5.5 2.92 8.09 11.31h4.46a14.47 14.47 0 012.87 0h163.4V0" fill="none"/><path d="M668.22 1000h2.87a14.47 14.47 0 00-2.87 0z" transform="translate(14 -.46)" fill="url(#b)"/><path d="M485.27 912.63a.06.06 0 01-.07 0c-2.6-9.09-6.42-11.37-8.35-12.14V1000h20.44v-86.59c-5.01-3.12-10.84-1.15-12.02-.78z" transform="translate(14 -.46)" fill="url(#ax)"/><path d="M455.46 897.91a.06.06 0 01-.07 0c-2.59-9.09-6.42-11.37-8.34-12.14V1000h20.44V898.7c-5.02-3.13-10.84-1.16-12.03-.79z" transform="translate(14 -.46)" fill="url(#ay)"/><path d="M604.48 971.47a.06.06 0 01-.07 0c-2.6-9.09-6.42-11.37-8.34-12.14V1000h20.43v-27.75c-5.01-3.12-10.84-1.15-12.02-.78z" transform="translate(14 -.46)" fill="url(#az)"/><path d="M574.68 956.76a.06.06 0 01-.07 0c-2.6-9.09-6.42-11.37-8.35-12.15V1000h20.44v-42.46c-5.01-3.12-10.84-1.15-12.02-.78z" transform="translate(14 -.46)" fill="url(#aA)"/><path d="M634.28 986.18a.06.06 0 01-.07 0c-2.59-9.09-6.42-11.37-8.34-12.14v26h20.44V987c-5.02-3.16-10.85-1.19-12.03-.82z" transform="translate(14 -.46)" fill="url(#aB)"/><path d="M655.67 988.71V1000h8.09c-2.59-8.37-6.23-10.54-8.09-11.29z" transform="translate(14 -.46)" fill="url(#aC)"/><path d="M515.07 927.34s-.06 0-.07-.05c-2.6-9.09-6.42-11.37-8.34-12.14V1000h20.43v-71.9c-5.01-3.1-10.84-1.1-12.02-.76z" transform="translate(14 -.46)" fill="url(#aD)"/><path d="M544.87 942.05a.06.06 0 01-.07 0c-2.59-9.1-6.42-11.37-8.34-12.15v70.1h20.44v-57.17c-5.02-3.12-10.85-1.15-12.03-.78z" transform="translate(14 -.46)" fill="url(#aE)"/><path d="M127.63 736.09s-.06 0-.07-.05c-2.6-9.09-6.42-11.37-8.34-12.14V1000h20.43V736.87c-5.01-3.12-10.84-1.15-12.02-.78z" transform="translate(14 -.46)" fill="url(#aF)"/><path d="M97.82 721.38h-.06c-2.6-9.09-6.42-11.37-8.35-12.14V1000h20.44V722.16C104.84 719 99 721 97.82 721.38z" transform="translate(14 -.46)" fill="url(#aG)"/><path d="M157.43 750.8a.06.06 0 01-.07 0c-2.59-9.1-6.42-11.37-8.34-12.15V1000h20.44V751.58c-5.02-3.12-10.85-1.15-12.03-.78z" transform="translate(14 -.46)" fill="url(#aH)"/><path d="M425.66 883.2a.06.06 0 01-.07 0c-2.59-9.09-6.42-11.37-8.34-12.14v129h20.44V884c-5.02-3.14-10.85-1.17-12.03-.8z" transform="translate(14 -.46)" fill="url(#aI)"/><path d="M68 706.66a.06.06 0 01-.07 0c-2.59-9.09-6.42-11.37-8.34-12.14V1000h20.46V707.45c-5.05-3.13-10.85-1.16-12.05-.79z" transform="translate(14 -.46)" fill="url(#aJ)"/><path d="M187.23 765.51a.06.06 0 01-.07 0c-2.59-9.09-6.42-11.37-8.34-12.15V1000h20.44V766.29c-5.01-3.12-10.84-1.15-12.03-.78z" transform="translate(14 -.46)" fill="url(#aK)"/><path d="M38.22 692a.06.06 0 01-.07 0c-2.6-9.09-6.42-11.37-8.34-12.14V1000h20.43V692.74c-5.01-3.13-10.84-1.16-12.02-.74z" transform="translate(14 -.46)" fill="url(#aL)"/><path d="M8.41 677.24h-.06c-2.6-9.09-6.42-11.37-8.35-12.14v335h20.44V678c-5.01-3.1-10.84-1.13-12.03-.76z" transform="translate(14 -.46)" fill="url(#aM)"/><path d="M336.25 839.07s-.06 0-.07-.05c-2.59-9.09-6.42-11.36-8.34-12.14V1000h20.44V839.85c-5.02-3.12-10.85-1.15-12.03-.78z" transform="translate(14 -.46)" fill="url(#aN)"/><path d="M366.05 853.78a.06.06 0 01-.07 0c-2.59-9.1-6.42-11.37-8.34-12.15V1000h20.44V854.56c-5.01-3.12-10.84-1.15-12.03-.78z" transform="translate(14 -.46)" fill="url(#aO)"/><path d="M395.86 868.49a.06.06 0 01-.07 0c-2.6-9.09-6.42-11.37-8.35-12.14V1000h20.44V869.27c-5.01-3.12-10.88-1.15-12.02-.78z" transform="translate(14 -.46)" fill="url(#aP)"/><path d="M306.45 824.36s-.06 0-.07-.05c-2.6-9.09-6.42-11.37-8.34-12.14V1000h20.43V825.14c-5.01-3.14-10.84-1.14-12.02-.78z" transform="translate(14 -.46)" fill="url(#aQ)"/><path d="M246.84 794.93a.06.06 0 01-.07 0c-2.59-9.09-6.42-11.37-8.34-12.14V1000h20.44V795.72c-5.02-3.13-10.87-1.16-12.03-.79z" transform="translate(14 -.46)" fill="url(#aR)"/><path d="M276.64 809.64a.06.06 0 01-.07 0c-2.59-9.09-6.42-11.37-8.34-12.14V1000h20.44V810.43c-5.01-3.13-10.84-1.16-12.03-.79z" transform="translate(14 -.46)" fill="url(#aS)"/><path d="M217 780.22a.06.06 0 01-.07 0c-2.6-9.09-6.42-11.37-8.34-12.14v232h20.43V781c-4.97-3.12-10.8-1.15-12.02-.78z" transform="translate(14 -.46)" fill="url(#aT)"/></g></svg>